<?xml version="1.0" standalone="no"?>
<!DOCTYPE svg PUBLIC "-//W3C//DTD SVG 20010904//EN"
 "http://www.w3.org/TR/2001/REC-SVG-20010904/DTD/svg10.dtd">
<svg version="1.0" xmlns="http://www.w3.org/2000/svg"
 width="700.000000pt" height="700.000000pt" viewBox="0 0 700.000000 700.000000"
 preserveAspectRatio="xMidYMid meet">
<metadata>
Created by potrace 1.14, written by Peter Selinger 2001-2017
</metadata>
<g transform="translate(0.000000,700.000000) scale(0.100000,-0.100000)"
fill="#000000" stroke="none">
<path d="M3185 6989 c-1016 -94 -1942 -626 -2536 -1457 -791 -1106 -866 -2583
-191 -3767 382 -670 997 -1211 1713 -1505 928 -381 1997 -342 2891 106 1375
690 2142 2190 1893 3700 -122 733 -457 1386 -980 1909 -552 552 -1244 892
-2035 1000 -138 19 -608 28 -755 14z m2593 -3565 c-21 -18 -2251 -1367 -2270
-1372 -11 -2 -460 264 -1152 684 l-1136 689 0 1068 c0 587 1 1067 3 1067 1 0
513 -623 1137 -1384 624 -762 1137 -1385 1140 -1385 3 0 518 625 1145 1388
l1140 1387 3 -1065 c2 -844 -1 -1068 -10 -1077z"/>
</g>
</svg>
