<?xml version="1.0" encoding="utf-8"?>
<!-- Generator: Adobe Illustrator 28.0.0, SVG Export Plug-In . SVG Version: 6.00 Build 0)  -->
<svg version="1.1" id="Layer_1" xmlns="http://www.w3.org/2000/svg" xmlns:xlink="http://www.w3.org/1999/xlink" x="0px" y="0px"
	 viewBox="0 0 314.4 359.3" style="enable-background:new 0 0 314.4 359.3;" xml:space="preserve">
<style type="text/css">
	.st0{fill:#FFFFFF;}
	.st1{fill:#FCB123;}
	.st2{fill:#FFD8A2;}
	.st3{fill:#F8B5BE;}
	.st4{fill:#EF5196;}
	.st5{fill:#FAD49E;}
	.st6{fill:#FAAE22;}
	.st7{fill:#365EAB;}
</style>
<g>
	<polygon class="st0" points="198.9,105.8 88.6,49.3 24,80.7 87.6,114.3 157.2,151 221.2,117.2 	"/>
	<path class="st1" d="M0.3,78.5c0.1-0.2,0.1-0.4,0.2-0.6C0.4,78.1,0.3,78.3,0.3,78.5z"/>
	<path class="st1" d="M0.1,79.4c0-0.2,0.1-0.4,0.1-0.6C0.2,79,0.1,79.2,0.1,79.4z"/>
	<path class="st1" d="M0,80.4C0,80.4,0,80.4,0,80.4c0-0.1,0-0.2,0-0.4C0,80.1,0,80.2,0,80.4z"/>
	<path class="st1" d="M1.7,75.7c0.1-0.1,0.1-0.1,0.2-0.2C1.8,75.6,1.7,75.7,1.7,75.7z"/>
	<path class="st1" d="M0.6,77.6c0.1-0.2,0.2-0.4,0.3-0.6C0.8,77.2,0.7,77.4,0.6,77.6z"/>
	<path class="st1" d="M11,73.9l76.6,40.4L24,80.7l64.6-31.5l110.3,56.5L85.3,47.5c-2.5-1.3-4.1-3.9-4.1-6.7c0-2.8,1.7-5.4,4.2-6.7
		L4.5,73.6C6.6,72.8,9,72.8,11,73.9z"/>
	<path class="st1" d="M1.1,76.7c0.1-0.1,0.2-0.3,0.3-0.4C1.2,76.4,1.2,76.5,1.1,76.7z"/>
	<rect x="153" y="134.1" transform="matrix(0.4706 -0.8824 0.8824 0.4706 -18.1694 237.979)" class="st1" width="72.4" height="0"/>
	<polygon class="st0" points="105.4,41 237.4,108.7 290.4,80.7 157.2,15.8 	"/>
	<path class="st1" d="M314.2,79c0,0.1,0.1,0.3,0.1,0.4C314.3,79.3,314.3,79.1,314.2,79z"/>
	<path class="st1" d="M314,78c0,0.1,0.1,0.3,0.1,0.4C314.1,78.3,314,78.1,314,78z"/>
	<path class="st1" d="M314.4,80.4c0-0.1,0-0.2,0-0.4C314.4,80.1,314.4,80.3,314.4,80.4C314.4,80.4,314.4,80.4,314.4,80.4z"/>
	<path class="st1" d="M313.6,77.1c0.1,0.1,0.1,0.3,0.2,0.4C313.7,77.4,313.7,77.2,313.6,77.1z"/>
	<path class="st1" d="M311.8,74.8c0.1,0.1,0.2,0.2,0.3,0.3C312,75,311.9,74.9,311.8,74.8z"/>
	<path class="st1" d="M313.1,76.2c0.1,0.1,0.2,0.3,0.3,0.4C313.3,76.5,313.2,76.4,313.1,76.2z"/>
	<path class="st1" d="M312.5,75.5c0.1,0.1,0.2,0.2,0.3,0.4C312.7,75.7,312.6,75.6,312.5,75.5z"/>
	<path class="st1" d="M311,74.2c0.1,0.1,0.3,0.2,0.4,0.3C311.2,74.4,311.1,74.3,311,74.2z"/>
	<path class="st1" d="M81.2,40.8c0,2.8,1.5,5.4,4.1,6.7l113.6,58.2l22.3,11.5l0,0l82.2-43.4c2.2-1.2,4.8-1.1,7,0
		c-0.1,0-0.2-0.1-0.3-0.1l-149.7-73c-2.1-1-4.5-1-6.6,0L85.4,34.2C82.9,35.4,81.3,38,81.2,40.8z M237.4,108.7L105.4,41l51.8-25.2
		l133.2,64.9L237.4,108.7z"/>
	<path class="st0" d="M299.4,266.9v-174L164.7,164v175.3L299.4,266.9z M260.5,134.8c12.4,0,22.5,11.8,22.5,26.2
		c0,14.4-10.1,26.2-22.5,26.2c-12.4,0-22.5-11.8-22.5-26.2C238,146.5,248.1,134.8,260.5,134.8z M179.9,297.8l22.5-97.3
		c0.7-3,3.1-5.2,6.1-5.7c3-0.5,6,0.9,7.6,3.5l16.7,27.9l15.8-21c1.5-2,3.8-3.1,6.2-3c2.4,0.1,4.7,1.4,6,3.4l26.1,40.1
		c1.1,1.8,1.5,3.9,1,6c-0.5,2-1.9,3.7-3.7,4.7l-93.5,49.7c-1.1,0.6-2.3,0.9-3.5,0.9c-1.6,0-3.2-0.5-4.6-1.5
		C180.3,303.6,179.2,300.6,179.9,297.8z"/>
	<path class="st1" d="M156.2,359.3C156.2,359.3,156.2,359.3,156.2,359.3C156.2,359.3,156.2,359.3,156.2,359.3z"/>
	<path class="st1" d="M155.3,359.1c0,0-0.1,0-0.1,0C155.2,359,155.2,359.1,155.3,359.1z"/>
	<path class="st1" d="M158.2,359.3c-0.3,0-0.6,0.1-1,0.1C157.5,359.3,157.9,359.3,158.2,359.3z"/>
	<path class="st1" d="M160,358.8c-0.2,0.1-0.4,0.2-0.6,0.2C159.6,358.9,159.8,358.9,160,358.8z"/>
	<path class="st1" d="M153.3,358.2C153.3,358.2,153.3,358.3,153.3,358.2c0.4,0.3,0.8,0.4,1.1,0.6c-0.2-0.1-0.5-0.2-0.7-0.3
		L153.3,358.2z"/>
	<path class="st1" d="M159.1,359.1c-0.2,0.1-0.5,0.1-0.7,0.2C158.6,359.2,158.9,359.1,159.1,359.1z"/>
	<path class="st1" d="M314.4,80c0-0.2,0-0.4,0-0.6c0-0.1-0.1-0.3-0.1-0.4c0-0.2-0.1-0.4-0.1-0.5c0-0.1-0.1-0.3-0.1-0.4
		c-0.1-0.2-0.1-0.3-0.2-0.5c-0.1-0.1-0.1-0.3-0.2-0.4c-0.1-0.2-0.2-0.3-0.3-0.5c-0.1-0.1-0.2-0.3-0.3-0.4c-0.1-0.1-0.2-0.3-0.3-0.4
		c-0.1-0.1-0.2-0.2-0.3-0.4c-0.1-0.1-0.2-0.3-0.4-0.4c-0.1-0.1-0.2-0.2-0.3-0.3c-0.1-0.1-0.3-0.2-0.4-0.3c-0.1-0.1-0.3-0.2-0.4-0.3
		c-0.1,0-0.1-0.1-0.2-0.1c-0.1-0.1-0.2-0.1-0.3-0.2c-2.2-1.2-4.8-1.2-7,0l-82.2,43.4l-64,33.8l3.5,1.8c2.4,1.3,4,3.8,4,6.7v4.5
		l134.8-71.1v174l-134.8,72.4v12.5c0,2.6-1.4,5.1-3.7,6.4c-0.2,0.1-0.4,0.2-0.7,0.3c0.1-0.1,0.3-0.1,0.4-0.2L310.5,278
		c2.4-1.3,3.9-3.8,3.9-6.6V80.5c0,0,0,0,0-0.1C314.4,80.3,314.4,80.1,314.4,80z"/>
	<path class="st2" d="M15,184.5v82.3l134.8,72.5V164L15,92.9v31.7c0,4.1-3.4,7.5-7.5,7.5v15c4.1,0,7.5,3.4,7.5,7.5
		c0,4.1-3.4,7.5-7.5,7.5v15C11.6,177,15,180.4,15,184.5z M88.9,280.7c-1.3,2.3-3.8,3.7-6.5,3.7c-1.3,0-2.6-0.3-3.7-1l-19.5-11.2
		c-3.6-2-4.9-6.7-2.8-10.3c1.9-3.4,6.7-4.7,10.2-2.8l19.5,11.2c1.7,1,3,2.6,3.5,4.6C90.1,276.9,89.8,278.9,88.9,280.7z M30.9,213.4
		c2.1-3.6,6.6-4.8,10.2-2.8l52.4,29.9c3.6,2.1,4.8,6.6,2.8,10.2c-1.4,2.4-3.9,3.8-6.5,3.8c-1.3,0-2.5-0.3-3.7-1l-52.4-29.9
		C30.1,221.5,28.9,217,30.9,213.4z M30.3,247.3c2-3.4,6.8-4.8,10.3-2.8c1.7,1,3,2.6,3.5,4.5c0.5,1.9,0.2,4-0.7,5.7
		c-1.3,2.3-3.8,3.8-6.5,3.8c-1.3,0-2.5-0.4-3.7-1c-1.7-1.1-2.9-2.6-3.4-4.6C29.1,251,29.3,249,30.3,247.3z"/>
	<path class="st1" d="M164.7,351.8v-12.5V164v-4.5c0-2.8-1.6-5.4-4-6.7l-3.5-1.8l0,0l-69.6-36.7L11,73.9c-2-1.1-4.4-1.1-6.5-0.3
		c-0.3,0.1-0.6,0.3-0.9,0.4c-0.7,0.4-1.2,0.9-1.7,1.5c-0.1,0.1-0.1,0.1-0.2,0.2c-0.1,0.2-0.2,0.3-0.4,0.5c-0.1,0.1-0.2,0.3-0.3,0.4
		C1,76.8,0.9,76.9,0.9,77c-0.1,0.2-0.2,0.4-0.3,0.6c0,0.1-0.1,0.2-0.1,0.3c-0.1,0.2-0.1,0.4-0.2,0.6c0,0.1-0.1,0.3-0.1,0.4
		c0,0.2-0.1,0.4-0.1,0.6c0,0.2,0,0.4,0,0.5c0,0.2,0,0.3,0,0.5c0,0,0,0,0,0.1v44.2c0,4.1,3.4,7.5,7.5,7.5c4.1,0,7.5-3.4,7.5-7.5V92.9
		L149.7,164v175.3L15,266.9v-82.3c0-4.1-3.4-7.5-7.5-7.5c-4.1,0-7.5,3.4-7.5,7.5v86.8c0,2.8,1.5,5.2,4,6.6l149.3,80.3l0.4,0.2
		c0.2,0.1,0.5,0.2,0.7,0.3c0.2,0.1,0.5,0.2,0.7,0.2c0,0,0.1,0,0.1,0c0.3,0.1,0.6,0.2,1,0.2c0,0,0,0,0,0c0.3,0,0.7,0.1,1,0.1
		c0.3,0,0.7,0,1-0.1c0.1,0,0.1,0,0.2,0c0.3,0,0.5-0.1,0.7-0.2c0.1,0,0.2-0.1,0.3-0.1c0.2-0.1,0.4-0.1,0.6-0.2c0.1,0,0.2-0.1,0.3-0.1
		c0.2-0.1,0.5-0.2,0.7-0.3C163.3,356.9,164.7,354.5,164.7,351.8z"/>
	<path class="st1" d="M15,154.6c0-4.1-3.4-7.5-7.5-7.5c-4.1,0-7.5,3.4-7.5,7.5c0,4.1,3.4,7.5,7.5,7.5C11.6,162.1,15,158.7,15,154.6z
		"/>
	<path class="st3" d="M269.9,246.9l-15.8-24.3l-16,21.4c-1.5,2-3.8,3.1-6.4,3c-2.5-0.1-4.7-1.5-6-3.6l-12.9-21.5l-14.6,63.2
		L269.9,246.9z"/>
	<path class="st4" d="M182.6,305.4c1.3,1,2.9,1.5,4.6,1.5c1.2,0,2.4-0.3,3.5-0.9l93.5-49.7c1.9-1,3.2-2.7,3.7-4.7c0.5-2,0.2-4.2-1-6
		l-26.1-40.1c-1.3-2-3.6-3.3-6-3.4c-2.4-0.1-4.8,1-6.2,3l-15.8,21L216,198.3c-1.6-2.6-4.6-4-7.6-3.5c-3,0.5-5.4,2.7-6.1,5.7
		l-22.5,97.3C179.2,300.6,180.3,303.6,182.6,305.4z M225.7,243.4c1.3,2.1,3.5,3.5,6,3.6c2.6,0.1,4.9-1,6.4-3l16-21.4l15.8,24.3
		l-71.7,38.2l14.6-63.2L225.7,243.4z"/>
	<path class="st5" d="M260.5,172.2c4,0,7.5-5.2,7.5-11.2c0-6-3.5-11.2-7.5-11.2c-4,0-7.5,5.3-7.5,11.2
		C253,167,256.5,172.2,260.5,172.2z"/>
	<path class="st6" d="M260.5,187.2c12.4,0,22.5-11.8,22.5-26.2c0-14.4-10.1-26.2-22.5-26.2c-12.4,0-22.5,11.8-22.5,26.2
		C238,175.4,248.1,187.2,260.5,187.2z M260.5,149.7c4,0,7.5,5.3,7.5,11.2c0,6-3.5,11.2-7.5,11.2c-4,0-7.5-5.2-7.5-11.2
		C253,155,256.5,149.7,260.5,149.7z"/>
	<path class="st7" d="M33.1,257.5c1.2,0.6,2.5,1,3.7,1c2.7,0,5.2-1.5,6.5-3.8c1-1.7,1.3-3.7,0.7-5.7c-0.5-1.9-1.8-3.5-3.5-4.5
		c-3.4-2-8.2-0.7-10.3,2.8c-1,1.7-1.2,3.7-0.7,5.7C30.2,254.9,31.4,256.5,33.1,257.5z"/>
	<path class="st7" d="M86.1,270.5l-19.5-11.2c-3.5-1.9-8.2-0.7-10.2,2.8c-2.1,3.6-0.8,8.2,2.8,10.3l19.5,11.2c1.1,0.7,2.4,1,3.7,1
		c2.7,0,5.2-1.4,6.5-3.7c1-1.8,1.3-3.8,0.7-5.7C89.1,273.1,87.8,271.4,86.1,270.5z"/>
	<path class="st7" d="M33.7,223.6l52.4,29.9c1.2,0.7,2.4,1,3.7,1c2.6,0,5.1-1.4,6.5-3.8c2.1-3.6,0.8-8.2-2.8-10.2l-52.4-29.9
		c-3.6-2.1-8.2-0.8-10.2,2.8C28.9,217,30.1,221.5,33.7,223.6z"/>
</g>
</svg>
