<?xml version="1.0" encoding="utf-8"?>
<!-- Generator: Adobe Illustrator 28.0.0, SVG Export Plug-In . SVG Version: 6.00 Build 0)  -->
<svg version="1.1" id="Layer_1" xmlns="http://www.w3.org/2000/svg" xmlns:xlink="http://www.w3.org/1999/xlink" x="0px" y="0px"
	 viewBox="0 0 1674 1264.9" style="enable-background:new 0 0 1674 1264.9;" xml:space="preserve">
<style type="text/css">
	.st0{opacity:0.1;fill:#442866;}
	.st1{fill:#F9CA25;}
	.st2{fill:#F68C44;}
	.st3{fill:#352144;}
	.st4{fill:#F8B7C8;}
	.st5{fill:#414A53;}
	.st6{fill:#ABB2BB;}
	.st7{fill:#947BB8;}
	.st8{fill:#171717;}
	.st9{fill:#E6A1B6;}
	.st10{fill:#191145;}
	.st11{fill:#FFFFFF;}
	.st12{fill:#CE8DA4;}
	.st13{fill:#E5E5E5;}
	.st14{opacity:0.35;fill:#414A53;}
	.st15{fill:#2B2E30;}
	.st16{fill:#4F2A70;}
	.st17{fill:#442866;}
	.st18{fill:#6E3B96;}
	.st19{fill:#73479C;}
	.st20{fill:#D4A82A;}
	.st21{fill:#FFD561;}
	.st22{fill:#9B772C;}
	.st23{fill:#E47831;}
	.st24{fill:#CE6E2B;}
	.st25{fill:#F59A5C;}
	.st26{fill:#F9A66C;}
	.st27{fill:#836BAF;}
	.st28{fill:#6E57A5;}
	.st29{fill:#A288BF;}
	.st30{fill:#AD95C7;}
	.st31{fill:none;stroke:#3C4E52;stroke-miterlimit:10;}
	.st32{fill:#FEBC11;}
	.st33{fill:#F26A6B;}
	.st34{fill:#F5B1B0;}
	.st35{fill:#D27F80;}
	.st36{opacity:0.51;fill:#CA826A;}
	.st37{fill:#291635;}
	.st38{fill:none;stroke:#171717;stroke-width:0.5;stroke-miterlimit:10;}
	.st39{fill:#21122B;}
	.st40{opacity:0.43;}
	.st41{fill:#3EB767;}
	.st42{fill:#60BF7E;}
	.st43{fill:#1C8043;}
	.st44{fill:#3D225B;}
	.st45{fill:#58397D;}
	.st46{fill:#7A4FA0;}
	.st47{fill:#592D83;}
	.st48{fill:#E1B025;}
	.st49{fill:#F7CC41;}
	.st50{fill:#BD922D;}
	.st51{fill:#DDB126;}
	.st52{fill:#1E5E38;}
</style>
<g>
	<g>
		<g>
			<path class="st0" d="M1560.1,813.2c-91.5,177.6-475.2,108.3-823.9,91.9c-101-4.8-199.1-5.1-286.3,6.4
				C102.5,957-56.4,901,146.2,450.7c38.4-85.3,139.5-122.8,223.8-82.2c7.1,3.4,14.4,6.8,22.1,10.1c103.5,45.2,257.2,81.4,461.1,48.5
				C1267,360.2,1678.1,584.1,1560.1,813.2z"/>
			<path class="st0" d="M736.3,905.1c-101-4.8-199.1-5.1-286.3,6.4C102.5,957-56.4,901,146.2,450.7
				c38.4-85.3,139.5-122.8,223.8-82.2c7.1,3.4,14.4,6.8,22.1,10.1c-34.2,118-53.7,301.8,108.2,398.8
				C566.4,816.9,650,861,736.3,905.1z"/>
		</g>
		<g>
			<g>
				<path class="st0" d="M1586,1179.1c0,47.4-355,85.8-793,85.8c-25.2,0-50.2-0.1-74.8-0.4C315.3,1260.5,0,1223.8,0,1179.1
					c0-32.3,164.9-60.4,408.5-75.1c113.9-6.8,245-10.8,384.5-10.8C1231,1093.3,1586,1131.7,1586,1179.1z"/>
				<path class="st0" d="M718.2,1264.5C315.3,1260.5,0,1223.8,0,1179.1c0-32.3,164.9-60.4,408.5-75.1
					C455.2,1163.5,549.3,1220.1,718.2,1264.5z"/>
			</g>
			<g>
				<path class="st1" d="M981.9,216.5l-4.9,2.4l-75,36.3l31.2-82.7l2.1-5.5c9,11.3,20.8,24.8,35.3,38.9
					C974,209.3,977.8,212.8,981.9,216.5z"/>
				<path class="st2" d="M1089,286.1l-4.3,3.6l-63.6,53.1l9.6-82.6l0.7-5.6C1048.4,265.8,1067.6,276.6,1089,286.1z"/>
				<path class="st1" d="M1211.9,317.7l-3.1,4.8l-48.6,76.7l-17.5-88.7l-1.1-5.6c2.4,0.7,4.8,1.3,7.3,1.9
					C1169.5,312.2,1190.5,315.8,1211.9,317.7z"/>
				<path class="st2" d="M1557.3,315.7l-73.2-46.4l-5.2-3.3c19.3-8.5,38.9-18.1,58.7-28.7l1.3,5.1L1557.3,315.7z"/>
				<path class="st1" d="M1447.9,372.4l-63.7-66.9l-4-4.2c22.2-6,44.7-13.4,67.5-22.3l0,5.4L1447.9,372.4z"/>
				<path class="st2" d="M1340.1,311.2l-1.5,4.8l-29.8,93l-41-84.9l-2.4-5c22.7-0.8,45.8-3.3,69.3-7.6l0,0L1340.1,311.2z"/>
				<g>
					<path class="st3" d="M1591,212.6c-17.5,10.7-34.9,20.6-52.1,29.8c-18.4,9.9-36.7,18.8-54.8,26.9c-12.2,5.5-24.3,10.5-36.3,15.2
						c-21.5,8.3-42.7,15.3-63.6,21c-15.4,4.2-30.6,7.7-45.6,10.5c-24,4.5-47.6,7.2-70.7,8.1c-20,0.8-39.7,0.3-59-1.6
						c-6.2-0.6-12.3-1.3-18.4-2.2c-14.5-2.1-28.7-4.9-42.8-8.5c-1.6-0.4-3.2-0.8-4.8-1.3c-20.9-5.6-40.3-12.8-58.1-20.8
						c-19.9-9-37.9-19-54-29.5c-21.1-13.7-39-28.1-53.7-41.4c-3.6-3.3-7-6.4-10.1-9.5c-13.7-13.3-24.9-25.9-33.7-36.8
						c-16.3-20.1-24.4-34.1-24.6-34.4l4.4-2.5c0.1,0.2,7.5,12.9,22.2,31.4c9,11.3,20.8,24.8,35.3,38.9c3.5,3.5,7.3,7,11.4,10.6
						c13.7,12.3,30.2,25.5,49.4,38.1c17.1,11.2,36.3,22,57.7,31.5l0,0c16.3,7.2,33.9,13.6,52.7,18.9l0,0c2.4,0.7,4.8,1.3,7.3,1.9
						c20.6,5.2,41.6,8.8,63,10.8c17.5,1.6,35.4,2.1,53.5,1.4c22.7-0.8,45.8-3.3,69.3-7.6l0,0c15-2.7,30.1-6.1,45.4-10.2
						c22.2-6,44.7-13.4,67.5-22.3c10.3-4,20.7-8.3,31.2-13c19.3-8.5,38.9-18.1,58.7-28.7c16.7-8.9,33.6-18.6,50.7-29.1L1591,212.6z"
						/>
				</g>
			</g>
			<g>
				<polygon class="st4" points="1034.9,799.1 1030.7,825.7 1069.4,826.3 1074.4,801.1 				"/>
				<g>
					<path class="st5" d="M998.6,844.3l76.5,0.6l0.1-13.4c0-4.5,0.8-11.4-4.2-11.5c0,0-39.2-2-42.2,0c-8.9,5.9-25.8,13-28.6,15.6
						c-1.2,1.1-1.8,2.4-2.1,3.7C997.6,842,998.6,844.3,998.6,844.3z"/>
					<path class="st6" d="M998.6,844.3l76.5,0.6l0-4.9l-77.1-0.6C997.6,842,998.6,844.3,998.6,844.3z"/>
				</g>
				<polygon class="st4" points="1211.9,811.2 1218.8,837.2 1254.4,822 1248.7,796.9 				"/>
				<g>
					<path class="st5" d="M1186.5,854.2l76.1-8.7l-1.5-13.3c-0.5-4.5-0.6-11.4-5.6-10.9c0,0-39.1,2.8-41.9,5.2
						c-8.1,7-24,16-26.5,18.9c-1.1,1.3-1.5,2.6-1.6,3.9C1185.2,852,1186.5,854.2,1186.5,854.2z"/>
					<path class="st6" d="M1186.5,854.2l76.1-8.7l-0.6-4.9l-76.6,8.8C1185.2,852,1186.5,854.2,1186.5,854.2z"/>
				</g>
				<path class="st7" d="M1043.3,337.6c-6.8,17.3,38.1,35.8,59.7,49.1c11.2,6.9,24.7,8.9,40.7,7.6c5.8-3.4,3.7-32-9.8-43.2
					c0,0-6.8-2.5-20.1-6.9c-23.6-7.7-48.9-18.1-48.9-18.1C1055.7,323.3,1046,328.4,1043.3,337.6L1043.3,337.6z"/>
				<path class="st4" d="M996.7,288.6c0,0-0.7-3-6.2-4.5c-5.5-1.5-10.2-0.8-19.9-5.1c-13.6-5.9-17-14.7-2.2-13.5
					c14.7,1.2,29.8,10.1,22.8,1c-3.5-4.6,2.2-5.3,6.8-2.6c4.6,2.7,17.7,14.9,17.7,14.9L996.7,288.6z"/>
				<path class="st7" d="M1072,327l-57.8-58.1L987,285.6c0,0,38.8,42.6,59.9,65.7c6.3,6.9,16.9,7.6,24.1,1.6h0
					C1078.8,346.2,1079.3,334.2,1072,327z"/>
				<g>
					<path class="st8" d="M1121.5,276c0,0-17-12.9-8.4-27.9c7.5-13.1,52.9,4.2,52.9,4.2s10.4-3.5,16.7,6c6.2,9.5,1.9,24.9,1.9,24.9
						L1121.5,276z"/>
					<path class="st4" d="M1167.5,321l-2.1,34.9c-0.6,9.5-15.9,13.7-22.6,14.2c-9.5,0.7-12.5-6.8-11.9-16.4l2.1-34.9L1167.5,321z"/>
					<path class="st9" d="M1167.5,321l-1,15.9c-6.2,7.5-21.2,8.5-34.8,3.5l1.3-21.5L1167.5,321z"/>
					<path class="st4" d="M1122.2,264c0,0-5.5,46.4-2.1,55.4c3.3,8.9,8.9,18.8,20.5,19.4c12.3,0.7,28.4-4.7,33.5-16.9
						c5.1-12.2,6.2-51.6,6.2-51.6L1122.2,264z"/>
					<path class="st8" d="M1174.4,271.6c0,0,4-6.5,10.3-2.8c0,0,3.7,2.9-0.3,27.1c-3.3,20.1-12.7,29.7-12.7,29.7
						S1171.7,294.8,1174.4,271.6z"/>
					<path class="st10" d="M1151.3,299.7c-0.1,1.1-1.1,2-2.2,2c-1.1-0.1-2-1.1-2-2.2c0.1-1.1,1.1-2,2.2-2
						C1150.5,297.5,1151.3,298.5,1151.3,299.7z"/>
					<path class="st10" d="M1129.9,296.8c-0.1,1.1-1.1,2-2.2,2c-1.1-0.1-2-1.1-2-2.2c0.1-1.1,1.1-2,2.2-2
						C1129.1,294.7,1130,295.7,1129.9,296.8z"/>
					<g>
						<g>
							<path class="st10" d="M1154.8,295.9c-0.2,0-0.3-0.1-0.4-0.2c-4.4-3.7-7.8-1.4-8-1.3c-0.3,0.2-0.8,0.2-1.1-0.2
								c-0.2-0.3-0.2-0.8,0.2-1.1c0,0,4.5-3.1,9.8,1.4c0.3,0.3,0.4,0.7,0.1,1.1C1155.2,295.9,1155,296,1154.8,295.9z"/>
						</g>
					</g>
					<g>
						<g>
							<path class="st10" d="M1123.9,293.4c-0.2,0-0.4-0.1-0.6-0.3c-0.3-0.3-0.2-0.8,0.1-1.1c4.7-3.6,9.8-0.2,9.9-0.2
								c0.3,0.2,0.4,0.7,0.2,1c-0.2,0.4-0.7,0.4-1.1,0.2c-0.2-0.1-4.3-2.8-8.1,0.2C1124.3,293.4,1124.1,293.5,1123.9,293.4z"/>
						</g>
					</g>
					<path class="st11" d="M1131.2,320.2l14.8,1.1c0,0-2.6,6.3-8.3,5.8C1131.9,326.7,1131.2,320.2,1131.2,320.2z"/>
					<g>
						<path class="st4" d="M1176.4,303.8c-0.3,5-4.6,8.7-9.5,8.4s-8.7-4.6-8.4-9.5c0.3-5,4.6-8.7,9.5-8.4
							C1172.9,294.6,1176.7,298.9,1176.4,303.8z"/>
						<path class="st12" d="M1171.5,301C1171.5,301,1171.5,301,1171.5,301c0-0.1-0.1-0.1-0.1-0.1c-1.3-1.5-3-2.3-4.1-2.6
							c-0.6-0.1-1.2,0.3-1.3,0.9c-0.1,0.6,0.3,1.2,0.9,1.3c0.1,0,1.1,0.3,2.1,1.1l-3,2.8c-0.5,0.4-0.5,1.1-0.1,1.6
							c0.2,0.2,0.5,0.3,0.8,0.4c0.3,0,0.6-0.1,0.8-0.3l2.9-2.6c0.3,0.6,0.5,1.3,0.5,2.2c0,0.6,0.5,1.1,1.1,1.1c0,0,0.1,0,0.1,0
							c0.6,0,1.1-0.6,1.1-1.2C1173,303.6,1172.4,302.2,1171.5,301z"/>
					</g>
					<path class="st8" d="M1120.8,275.6c0,0,43.1-1.6,47.7,0c5.7,1.9,4.9,6.6,4.9,6.6l5.7-16.4l-57.5-3.5L1120.8,275.6z"/>
				</g>
				<polygon class="st5" points="1096.2,509.9 1027.8,809.9 1079.6,813.1 1165.3,523.6 				"/>
				<polygon class="st5" points="1203,506.9 1225,679.6 1257.7,808.4 1207.6,815.2 1166.7,696.8 1133.3,516 				"/>
				<path class="st7" d="M1213.7,560.9c0,0-10.3,6-66.8,0.5c-10.8-0.5-21.2-2.1-30.4-3.9c-21.3-4.3-34.2-9.6-34.2-9.6
					c12.5-136.3,30.5-188.7,33.4-191.9c2.4-2.5,8.2-5.7,12.6-6.6c2.2-0.4,1.6-0.2,2.9-0.7c2.6,3.4,11.7,18.7,11.7,18.7
					s20.1-16.9,22.9-16.9l5.3,0.2c3.4,0.1,7,0.3,8.6,0.8c0.7,0.2,1.4,0.4,2.1,0.7c1.4,0.4,2.9,1,4.5,1.5c7,2.5,8.1,5.1,10.1,8.1
					C1202.5,370.7,1213.3,527.8,1213.7,560.9z"/>
				<path class="st7" d="M1269.8,350.3c4.4,18.1-42.7,30.2-65.9,40.4c-12.1,5.3-25.7,5.4-41.3,1.9c-5.3-4.2,0.7-32.2,15.7-41.4
					c0,0,7.1-1.6,20.9-4c24.5-4.4,50.9-11.2,50.9-11.2C1259.4,334.4,1268.3,340.8,1269.8,350.3L1269.8,350.3z"/>
				<path class="st4" d="M1309.6,292.2c0,0,0.4-3.1,5.7-5.2c5.3-2.1,10-2,19.1-7.3c12.9-7.5,15.2-16.6,0.7-13.7
					c-14.5,2.9-28.4,13.5-22.5,3.6c2.9-4.9-2.8-5.1-7.1-1.8c-4.2,3.2-15.8,16.9-15.8,16.9L1309.6,292.2z"/>
				<path class="st7" d="M1239.3,339l50.7-64.4l28.9,13.4c0,0-33.6,46.8-51.9,72.2c-5.4,7.6-15.9,9.5-23.7,4.4v0
					C1234.7,358.9,1232.8,347.1,1239.3,339z"/>
				<polygon class="st13" points="1165.9,347.3 1172.6,351.1 1154.5,375.2 1149.4,364.3 1142.9,367.4 				"/>
				<polygon class="st13" points="1131.5,345.8 1124.7,347.9 1131.3,375.1 1137.6,363.5 1142.9,367.3 				"/>
				<path class="st7" d="M1124.2,243.5l59.4-50l2.8,78.3C1170.7,253.9,1150,244.5,1124.2,243.5z"/>
				<path class="st7" d="M1183.3,193.5c0,0,2.5-0.6,5.5,1c3.9,2.1,5.5,6.8,4.4,11.1l-0.9,3.5C1192.2,209,1192.6,197.5,1183.3,193.5z
					"/>
				<path class="st7" d="M1183.5,193.6c0,0-2.5-2.5-7.1-2.8c-6.3-0.4-11.9,4.1-13.6,10.1l-1.4,4.9
					C1161.4,205.8,1169.3,191.7,1183.5,193.6z"/>
				<path class="st8" d="M1170.6,273.3c0,0-14.1,3.7-32.6,3.3c0,0,23.6,4.5,36.9,0.8L1170.6,273.3z"/>
				<polygon class="st13" points="1141.4,366.1 1137.7,410.6 1141.6,410.5 1145,366.4 				"/>
				<polygon class="st14" points="1105.8,388.2 1111.9,363.8 1101.1,385.4 				"/>
				<polygon class="st14" points="1201.4,391.5 1193.8,393.9 1205,426.1 				"/>
				<polygon class="st15" points="1146.4,587.2 1135.4,587.2 1130.7,640.6 				"/>
			</g>
			<g>
				<rect x="478.5" y="332.7" class="st16" width="295.7" height="843.8"/>
				<path class="st17" d="M478.5,1176.5V389.8h-16.1v-94.4h65.7c-0.3,10.9-0.7,23.3-1,37.2c-0.4,17.1-0.7,36.2-0.9,57.2
					c-2,214.3,9.5,612.1,114.2,786.6H478.5z"/>
				<rect x="478.5" y="332.7" class="st3" width="295.7" height="77.7"/>
				<rect x="762.3" y="332.7" class="st18" width="172.3" height="843.8"/>
				<path class="st19" d="M839.5,1176.5h-77.2v-881h29.6c-0.4,9.8-0.9,22.3-1.4,37.2c-0.5,16.4-1.1,35.6-1.7,57.2
					C784.1,584.6,782.9,970.6,839.5,1176.5z"/>
				<rect x="762.4" y="332.7" class="st3" width="172.3" height="77.7"/>
				<rect x="462.4" y="295.5" class="st16" width="322" height="94.4"/>
				<rect x="762.3" y="295.5" class="st18" width="187.3" height="94.4"/>
				<rect x="848.2" y="295.5" class="st1" width="41.3" height="881"/>
				<rect x="594.9" y="295.5" class="st20" width="41.3" height="881"/>
				<g>
					<path class="st20" d="M613,190.7c0,0-10.5,67.6,64.4,104.7h-55.4c0,0-83.8-44.2-85.5-113.3L613,190.7z"/>
					<path class="st1" d="M707.5,295.4c0,0-2.4-139.2-128-164.6l-43.1,51.3c0,0,112.1,14.2,141,113.3H707.5z"/>
					<polygon class="st1" points="633.5,295.5 530.1,246.7 547.4,275.4 525.4,295.5 					"/>
					<path class="st20" d="M801.9,185.7c0,0,10.6,72.6-64.3,109.8H793c0,0,83.8-44.2,85.5-113.3L801.9,185.7z"/>
					<path class="st1" d="M878.5,182.2c0,0-55.6,7-98.6,45.8c-18,16.3-33.9,38.2-42.4,67.5h-30.1c0,0,1.5-87.9,65.1-136.7
						c16.5-12.6,37.1-22.6,62.9-27.9L878.5,182.2z"/>
					<polygon class="st1" points="889.5,295.5 781.4,295.5 854.5,261 884.8,246.7 867.5,275.4 					"/>
				</g>
				<path class="st21" d="M780,228c2.9-31.5-1.3-53.8-7.4-69.3c16.5-12.6,37.1-22.6,62.9-27.9l43.1,51.3
					C878.5,182.2,822.9,189.2,780,228z"/>
				<path class="st17" d="M528.2,295.5c-0.3,10.9-0.7,23.3-1,37.2c-0.4,17.1-0.7,36.2-0.9,57.2h-63.8v-94.4H528.2z"/>
				<rect x="594.9" y="389.8" class="st22" width="41.3" height="20.5"/>
				<rect x="848.2" y="389.8" class="st20" width="41.3" height="20.5"/>
				<path class="st20" d="M889.5,295.5h-48.7c5-6.1,11.9-17.5,13.7-34.5l30.3-14.3l-17.3,28.7L889.5,295.5z"/>
				<path class="st19" d="M791.9,295.5c-0.4,9.8-0.9,22.3-1.4,37.2c-0.5,16.4-1.1,35.6-1.7,57.2h-26.5v-94.4H791.9z"/>
			</g>
			<g>
				<rect x="702.4" y="694.5" class="st2" width="442.3" height="480"/>
				<path class="st23" d="M1005.4,1174.5h-303V673.3H770c0,6.6,0.1,13.7,0.2,21.2c0.6,28.2,2.5,62.1,7.2,98.8
					C794.6,927.5,848.3,1099.8,1005.4,1174.5z"/>
				<rect x="702.4" y="694.5" class="st24" width="442.4" height="116.8"/>
				<rect x="1126.9" y="694.5" class="st25" width="257.8" height="480"/>
				<path class="st26" d="M1126.9,1174.5V793.3h0v-120h33.5c0.2,5.5,0.5,12.6,0.8,21.2c1,23.7,2.9,58.4,5.9,98.8
					c9.4,123.6,30.6,300.7,77.1,381.2H1126.9z"/>
				<rect x="1126.9" y="694.5" class="st24" width="257.8" height="116.8"/>
				<rect x="702.4" y="673.3" class="st2" width="457.6" height="120"/>
				<rect x="1126.9" y="673.3" class="st25" width="280.2" height="120"/>
				
					<rect x="1255.3" y="673.3" transform="matrix(-1 -1.224647e-16 1.224647e-16 -1 2572.3979 1847.8192)" class="st1" width="61.8" height="501.2"/>
				
					<rect x="876.4" y="673.3" transform="matrix(-1 -1.224647e-16 1.224647e-16 -1 1814.6117 1847.8192)" class="st1" width="61.8" height="501.2"/>
				<g>
					<path class="st20" d="M903.4,516.6c0,0-15.8,101.1,96.3,156.7h-82.9c0,0-125.3-66.2-127.9-169.4L903.4,516.6z"/>
					<path class="st1" d="M1044.7,673.2c0,0-3.5-208.2-191.5-246.2l-64.4,76.8c0,0,167.7,21.2,210.9,169.4H1044.7z"/>
					<polygon class="st1" points="934.1,673.3 779.4,600.4 805.3,643.3 772.4,673.3 					"/>
					<path class="st20" d="M1186,509.1c0,0,15.8,108.6-96.2,164.2h82.9c0,0,125.3-66.2,127.9-169.4L1186,509.1z"/>
					<path class="st1" d="M1300.6,503.8c0,0-85.4,10.8-150,70.9c-25.9,24.1-48.5,56.1-60.9,98.5h-45c0,0,2-119.7,84.9-194.2
						c26.4-23.7,61.1-42.8,106.5-52L1300.6,503.8z"/>
					<polygon class="st1" points="1155.3,673.3 1310,600.4 1284.1,643.3 1317.1,673.3 					"/>
				</g>
				<path class="st23" d="M777.5,793.3h-75.1v-120H770c0,6.6,0.1,13.7,0.2,21.2C770.8,722.7,772.8,756.6,777.5,793.3z"/>
				<path class="st26" d="M1167.1,793.3h-40.2v-120h33.5c0.2,5.5,0.5,12.6,0.8,21.2C1162.2,718.2,1164.1,752.9,1167.1,793.3z"/>
				<path class="st21" d="M1300.6,503.8c0,0-85.4,10.8-150,70.9c-5.2-37.4-13.2-69.9-20.9-95.6c26.4-23.7,61.1-42.8,106.5-52
					L1300.6,503.8z"/>
			</g>
			<g>
				<rect x="171.2" y="1044.1" class="st2" width="121.7" height="132"/>
				<path class="st23" d="M254.6,1176.1h-83.3v-137.8h18.6c0,1.8,0,3.8,0.1,5.8c0.2,7.8,0.7,17.1,2,27.2
					C196.6,1108.2,211.4,1155.6,254.6,1176.1z"/>
				<rect x="171.2" y="1044.1" class="st24" width="121.7" height="32.1"/>
				<rect x="288" y="1044.1" class="st25" width="70.9" height="132"/>
				<path class="st26" d="M288,1176.1v-104.8h0v-33h9.2c0.1,1.5,0.1,3.5,0.2,5.8c0.3,6.5,0.8,16.1,1.6,27.2
					c2.6,34,8.4,82.7,21.2,104.8H288z"/>
				<rect x="288" y="1044.1" class="st24" width="70.9" height="32.1"/>
				<rect x="171.2" y="1038.3" class="st2" width="125.9" height="33"/>
				<rect x="288" y="1038.3" class="st25" width="77.1" height="33"/>
				
					<rect x="323.3" y="1038.3" transform="matrix(-1 -1.224647e-16 1.224647e-16 -1 663.6091 2214.3931)" class="st1" width="17" height="137.8"/>
				
					<rect x="219.1" y="1038.3" transform="matrix(-1 -1.224647e-16 1.224647e-16 -1 455.2047 2214.3931)" class="st1" width="17" height="137.8"/>
				<g>
					<path class="st20" d="M226.5,995.2c0,0-4.3,27.8,26.5,43.1h-22.8c0,0-34.5-18.2-35.2-46.6L226.5,995.2z"/>
					<path class="st1" d="M265.4,1038.3c0,0-1-57.3-52.7-67.7L195,991.7c0,0,46.1,5.8,58,46.6H265.4z"/>
					<polygon class="st1" points="235,1038.3 192.4,1018.2 199.5,1030 190.5,1038.3 					"/>
					<path class="st20" d="M304.2,993.1c0,0,4.4,29.9-26.5,45.2h22.8c0,0,34.5-18.2,35.2-46.6L304.2,993.1z"/>
					<path class="st1" d="M335.8,991.7c0,0-23.5,3-41.3,19.5c-7.1,6.6-13.3,15.4-16.7,27.1h-12.4c0,0,0.6-32.9,23.4-53.4
						c7.3-6.5,16.8-11.8,29.3-14.3L335.8,991.7z"/>
					<polygon class="st1" points="295.8,1038.3 338.4,1018.2 331.2,1030 340.3,1038.3 					"/>
				</g>
				<path class="st23" d="M191.9,1071.3h-20.7v-33h18.6c0,1.8,0,3.8,0.1,5.8C190.1,1051.9,190.6,1061.2,191.9,1071.3z"/>
				<path class="st26" d="M299.1,1071.3H288v-33h9.2c0.1,1.5,0.1,3.5,0.2,5.8C297.7,1050.6,298.2,1060.2,299.1,1071.3z"/>
				<path class="st21" d="M335.8,991.7c0,0-23.5,3-41.3,19.5c-1.4-10.3-3.6-19.2-5.8-26.3c7.3-6.5,16.8-11.8,29.3-14.3L335.8,991.7z
					"/>
			</g>
			<g>
				<rect x="953.8" y="1000.9" class="st7" width="158.3" height="171.8"/>
				<path class="st27" d="M1062.3,1172.7H953.8V993.3H978c0,2.4,0,4.9,0.1,7.6c0.2,10.1,0.9,22.2,2.6,35.4
					C986.9,1084.3,1006.1,1146,1062.3,1172.7z"/>
				<rect x="953.8" y="1000.9" class="st28" width="158.3" height="41.8"/>
				<rect x="1105.8" y="1000.9" class="st29" width="92.3" height="171.8"/>
				<path class="st30" d="M1105.8,1172.7v-136.4h0v-42.9h12c0.1,2,0.2,4.5,0.3,7.6c0.4,8.5,1,20.9,2.1,35.4
					c3.4,44.2,10.9,107.6,27.6,136.4H1105.8z"/>
				<rect x="1105.8" y="1000.9" class="st28" width="92.3" height="41.8"/>
				<rect x="953.8" y="993.3" class="st7" width="163.8" height="42.9"/>
				<rect x="1105.8" y="993.3" class="st29" width="100.3" height="42.9"/>
				
					<rect x="1151.7" y="993.3" transform="matrix(-1 -1.224647e-16 1.224647e-16 -1 2325.5383 2166.0535)" class="st1" width="22.1" height="179.4"/>
				
					<rect x="1016.1" y="993.3" transform="matrix(-1 -1.224647e-16 1.224647e-16 -1 2054.3552 2166.0535)" class="st1" width="22.1" height="179.4"/>
				<g>
					<path class="st20" d="M1025.8,937.3c0,0-5.6,36.2,34.5,56.1h-29.7c0,0-44.8-23.7-45.8-60.6L1025.8,937.3z"/>
					<path class="st1" d="M1076.4,993.3c0,0-1.3-74.5-68.5-88.1l-23.1,27.5c0,0,60,7.6,75.5,60.6H1076.4z"/>
					<polygon class="st1" points="1036.8,993.3 981.4,967.2 990.7,982.6 978.9,993.3 					"/>
					<path class="st20" d="M1126.9,934.6c0,0,5.7,38.9-34.4,58.8h29.7c0,0,44.8-23.7,45.8-60.6L1126.9,934.6z"/>
					<path class="st1" d="M1167.9,932.7c0,0-30.6,3.9-53.7,25.4c-9.3,8.6-17.3,20.1-21.8,35.3h-16.1c0,0,0.7-42.8,30.4-69.5
						c9.5-8.5,21.9-15.3,38.1-18.6L1167.9,932.7z"/>
					<polygon class="st1" points="1115.9,993.3 1171.3,967.2 1162,982.6 1173.8,993.3 					"/>
				</g>
				<path class="st27" d="M980.7,1036.3h-26.9v-42.9H978c0,2.4,0,4.9,0.1,7.6C978.3,1011,979,1023.1,980.7,1036.3z"/>
				<path class="st30" d="M1120.2,1036.3h-14.4v-42.9h12c0.1,2,0.2,4.5,0.3,7.6C1118.4,1009.4,1119.1,1021.8,1120.2,1036.3z"/>
				<path class="st21" d="M1167.9,932.7c0,0-30.6,3.9-53.7,25.4c-1.9-13.4-4.7-25-7.5-34.2c9.5-8.5,21.9-15.3,38.1-18.6
					L1167.9,932.7z"/>
			</g>
			<g>
				<rect x="310.1" y="907.2" class="st7" width="247.8" height="268.9"/>
				<path class="st27" d="M479.9,1176.1H310.1V895.4H348c0,3.7,0,7.7,0.1,11.9c0.3,15.8,1.4,34.8,4,55.4
					C361.8,1037.8,391.9,1134.3,479.9,1176.1z"/>
				<rect x="310.1" y="907.2" class="st28" width="247.8" height="65.4"/>
				<rect x="548" y="907.2" class="st29" width="144.4" height="268.9"/>
				<path class="st30" d="M548,1176.1V962.6h0v-67.2h18.8c0.1,3.1,0.3,7,0.5,11.9c0.6,13.3,1.6,32.7,3.3,55.4
					c5.3,69.2,17.1,168.4,43.2,213.5H548z"/>
				<rect x="548" y="907.2" class="st28" width="144.4" height="65.4"/>
				<rect x="310.1" y="895.4" class="st7" width="256.4" height="67.2"/>
				<rect x="547.9" y="895.4" class="st29" width="156.9" height="67.2"/>
				
					<rect x="619.9" y="895.4" transform="matrix(-1 -1.224647e-16 1.224647e-16 -1 1274.335 2071.4829)" class="st1" width="34.6" height="280.7"/>
				
					<rect x="407.6" y="895.4" transform="matrix(-1 -1.224647e-16 1.224647e-16 -1 849.8592 2071.4829)" class="st1" width="34.6" height="280.7"/>
				<g>
					<path class="st20" d="M422.8,807.6c0,0-8.8,56.6,53.9,87.8h-46.5c0,0-70.2-37.1-71.7-94.9L422.8,807.6z"/>
					<path class="st1" d="M501.9,895.3c0,0-2-116.6-107.3-137.9l-36.1,43c0,0,93.9,11.9,118.1,94.9H501.9z"/>
					<polygon class="st1" points="440,895.4 353.3,854.5 367.8,878.6 349.3,895.4 					"/>
					<path class="st20" d="M581,803.4c0,0,8.9,60.8-53.9,92h46.5c0,0,70.2-37.1,71.7-94.9L581,803.4z"/>
					<path class="st1" d="M645.2,800.4c0,0-47.8,6-84,39.7c-14.5,13.5-27.2,31.4-34.1,55.2h-25.2c0,0,1.1-67.1,47.6-108.8
						c14.8-13.3,34.2-24,59.7-29.1L645.2,800.4z"/>
					<polygon class="st1" points="563.8,895.4 650.5,854.5 636,878.6 654.5,895.4 					"/>
				</g>
				<path class="st27" d="M352.2,962.6h-42.1v-67.2H348c0,3.7,0,7.7,0.1,11.9C348.5,923,349.6,942,352.2,962.6z"/>
				<path class="st30" d="M570.5,962.6h-22.5v-67.2h18.8c0.1,3.1,0.3,7,0.5,11.9C567.7,920.5,568.8,939.9,570.5,962.6z"/>
				<path class="st21" d="M645.2,800.4c0,0-47.8,6-84,39.7c-2.9-20.9-7.4-39.1-11.7-53.6c14.8-13.3,34.2-24,59.7-29.1L645.2,800.4z"
					/>
			</g>
			<g>
				<rect x="598.3" y="1004.7" class="st16" width="158.3" height="171.8"/>
				<path class="st17" d="M706.7,1176.5H598.3V997.1h24.2c0,2.4,0,4.9,0.1,7.6c0.2,10.1,0.9,22.2,2.6,35.4
					C631.3,1088.1,650.5,1149.7,706.7,1176.5z"/>
				<rect x="598.3" y="1004.7" class="st3" width="158.3" height="41.8"/>
				<rect x="750.2" y="1004.7" class="st18" width="92.3" height="171.8"/>
				<path class="st19" d="M750.2,1176.5v-136.4h0v-42.9h12c0.1,2,0.2,4.5,0.3,7.6c0.4,8.5,1,20.9,2.1,35.4
					c3.4,44.2,10.9,107.6,27.6,136.4H750.2z"/>
				<rect x="750.2" y="1004.7" class="st3" width="92.3" height="41.8"/>
				<rect x="598.3" y="997.1" class="st16" width="163.8" height="42.9"/>
				<rect x="750.2" y="997.1" class="st18" width="100.3" height="42.9"/>
				
					<rect x="796.1" y="997.1" transform="matrix(-1 -1.224647e-16 1.224647e-16 -1 1614.373 2173.5808)" class="st1" width="22.1" height="179.4"/>
				
					<rect x="660.5" y="997.1" transform="matrix(-1 -1.224647e-16 1.224647e-16 -1 1343.1899 2173.5808)" class="st1" width="22.1" height="179.4"/>
				<g>
					<path class="st20" d="M670.2,941c0,0-5.6,36.2,34.5,56.1H675c0,0-44.8-23.7-45.8-60.6L670.2,941z"/>
					<path class="st1" d="M720.8,997.1c0,0-1.3-74.5-68.5-88.1l-23.1,27.5c0,0,60,7.6,75.5,60.6H720.8z"/>
					<polygon class="st1" points="681.2,997.1 625.8,971 635.1,986.4 623.3,997.1 					"/>
					<path class="st20" d="M771.3,938.3c0,0,5.7,38.9-34.4,58.8h29.7c0,0,44.8-23.7,45.8-60.6L771.3,938.3z"/>
					<path class="st1" d="M812.3,936.5c0,0-30.6,3.9-53.7,25.4c-9.3,8.6-17.3,20.1-21.8,35.3h-16.1c0,0,0.7-42.8,30.4-69.5
						c9.5-8.5,21.9-15.3,38.1-18.6L812.3,936.5z"/>
					<polygon class="st1" points="760.3,997.1 815.7,971 806.4,986.4 818.2,997.1 					"/>
				</g>
				<path class="st17" d="M625.1,1040.1h-26.9v-42.9h24.2c0,2.4,0,4.9,0.1,7.6C622.7,1014.8,623.4,1026.9,625.1,1040.1z"/>
				<path class="st19" d="M764.6,1040.1h-14.4v-42.9h12c0.1,2,0.2,4.5,0.3,7.6C762.8,1013.2,763.5,1025.6,764.6,1040.1z"/>
				<path class="st21" d="M812.3,936.5c0,0-30.6,3.9-53.7,25.4c-1.9-13.4-4.7-25-7.5-34.2c9.5-8.5,21.9-15.3,38.1-18.6L812.3,936.5z
					"/>
			</g>
			<g>
				<g>
					<g>
						<path class="st31" d="M1532.4,686.4c13.5,0.3,38.2-191.1,50.1-252.2"/>
						<path class="st32" d="M1634.1,392.7c-7.3,23.4-32.7,48.9-52.4,42.8c-19.6-6.1-26-41.6-18.7-65c7.3-23.4,29.1-37.3,48.7-31.2
							C1631.4,345.4,1641.4,369.3,1634.1,392.7z"/>
					</g>
					<g>
						<path class="st31" d="M1531.6,679.6c8.1-3.9,1.9-146.5,6.6-205.1"/>
						<path class="st2" d="M1581.8,424.5c-3.1,24.3-23.7,53.9-44.1,51.3s-32.9-36.4-29.8-60.7c3.1-24.3,22.1-41.9,42.5-39.3
							C1570.8,378.5,1584.9,400.3,1581.8,424.5z"/>
					</g>
					<g>
						<path class="st31" d="M1536.2,681.8c11.5-2,53.5-128.6,73.1-179.2"/>
						<path class="st7" d="M1667.8,471.7c-11.6,21.5-41.4,41.8-59.6,32.1c-18.1-9.7-17.6-45.8-6-67.4c11.6-21.5,35.7-31.1,53.8-21.4
							C1674.2,424.7,1679.4,450.1,1667.8,471.7z"/>
					</g>
					<path class="st8" d="M1328.2,600.6c15.2-29.5,23.2-35.3,45.1-34c25.1,1.4,65.1,83.4,24.3,96.8c-35.2,11.5-44.1,39-44.1,39
						l-27.3,13.4C1326.2,715.8,1281.1,692.3,1328.2,600.6z"/>
					<polygon class="st4" points="1358.1,1030.4 1356.6,1156.7 1296.3,1158.3 1330.5,1139.7 1323.1,1032 					"/>
					<path class="st33" d="M1357.4,1141.9c0,0-7,6.7-16.6,9.5c-11.8,3.4-18.6,7.2-42.1,6.1c-11.5,4.6-12.5,12-3.6,12
						c9.6,0,13.7,0.8,23.1-0.3c19.5-12.4,33-15.1,32.5,2.1l2.6,0.1c0,0,4.2-9.3,4.1-13.8C1357.3,1153,1357.4,1141.9,1357.4,1141.9z"
						/>
					<path class="st4" d="M1328.6,691.7c-9.4,4.4-87.6,4.7-98.2-2.4c-10.4-7-55.2-61.9-55.2-61.9s-8.1,0-23.1-6.7
						c-19.4-8.6-11.6-12.5-0.9-8.4c10.7,4.1,21.3,3,15.5-1.3c-5.9-4.3-2.7-6.2,0.6-4.9c3.4,1.3,16.5,7.3,16.5,7.3l58.3,51
						c0,0,97-2.6,103.8,1.9C1352.8,670.9,1338,687.4,1328.6,691.7z"/>
					<polygon class="st4" points="1417.4,1030.4 1415.9,1156.7 1355.7,1158.3 1389.8,1139.7 1382.5,1032 					"/>
					<path class="st16" d="M1426,1097.9h-106.4c0,0-33.8-182.2-10.1-259.3c34.2-111.4-20.3-103.8,19.9-173.5c6.4-4,19.2-5,19.2-5
						l34.5-1.1c22.9,2.9,34.6,6.9,34.6,6.9c-2.2,17.5-2.5,36.5-1.7,55.2c2.5,60.1-12.8,90.4,2.9,126
						C1457.4,934.9,1410.8,978.4,1426,1097.9z"/>
					<path class="st4" d="M1547.7,673.7c-7.4,14.7-16.3,19.8-16.3,19.8s-27.8,76.9-40.3,75.8c-12.5-1-85.2-62.4-85.1-79.4
						c0.1-17,11.5-23.7,11.5-23.7l65.2,72l35.6-54.8c0,0,10.3-10.1,13.1-12.5c2.7-2.4,6.3-1.7,2.2,4.3c-4.1,6,3.6,1.4,9.3-8.5
						C1548.8,656.7,1557.2,654.8,1547.7,673.7z"/>
					<g>
						<ellipse class="st4" cx="1344.1" cy="618.4" rx="8.7" ry="8.8"/>
						<g>
							<line class="st34" x1="1340.9" y1="617.6" x2="1344.3" y2="621.1"/>
							<path class="st35" d="M1345.4,614c-0.1,0-2.7,0.7-4.9,3.1c0,0,0,0,0,0c0,0,0,0,0,0c-0.9,1-1.8,2.3-2.4,4.1
								c-0.1,0.3,0.1,0.7,0.4,0.8c0.1,0,0.1,0,0.2,0c0.3,0,0.5-0.2,0.6-0.4c0.5-1.3,1.1-2.3,1.7-3.2l2.9,3c0.1,0.1,0.3,0.2,0.5,0.2
								s0.3-0.1,0.5-0.2c0.3-0.3,0.3-0.7,0-0.9l-3-3c1.8-1.8,3.7-2.3,3.8-2.3c0.3-0.1,0.6-0.4,0.5-0.8
								C1346.1,614.2,1345.7,614,1345.4,614z"/>
						</g>
					</g>
					<g>
						<path class="st4" d="M1393.3,660.6c-0.8,4.9-21.5,32.2-31.4,31.7c-12.4-0.6-26.1-24.9-21-30.1c1.8-1.9,11.1-5.2,12-7.9
							c2.7-8.7,1.3-19.5,1.3-19.5l26.8-3c0,0-0.1,6.3,0.5,13.8c0.1,1,0.2,2.1,0.3,3.2C1382.8,657.6,1393.3,660.6,1393.3,660.6z"/>
						<path class="st36" d="M1381.5,643.9c-5.2,3.6-17.7,15.5-30.5,14.7c5.2-9.4,3.2-23.9,3.2-23.9l26.8-3
							C1381,631.8,1380.9,636.4,1381.5,643.9z"/>
					</g>
					<path class="st4" d="M1340.2,599.7c0,0-0.3,13.7,0,18.3c0.5,8.3,3.1,24.3,14.8,29.7c11.7,5.3,24.7-2.4,30.1-22.3
						c5.9-22-4.2-34.3-4.2-34.3S1340.2,579.6,1340.2,599.7z"/>
					<g>
						<ellipse class="st4" cx="1384.8" cy="619.3" rx="8.7" ry="8.8"/>
						<g>
							<line class="st34" x1="1388" y1="618.4" x2="1384.6" y2="621.9"/>
							<path class="st35" d="M1383.6,614.9c0.1,0,2.7,0.7,4.9,3.1c0,0,0,0,0,0c0,0,0,0,0,0c0.9,1,1.8,2.3,2.4,4.1
								c0.1,0.3-0.1,0.7-0.4,0.8c-0.1,0-0.1,0-0.2,0c-0.3,0-0.5-0.2-0.6-0.4c-0.5-1.3-1.1-2.3-1.7-3.2l-2.9,3
								c-0.1,0.1-0.3,0.2-0.5,0.2c-0.2,0-0.3-0.1-0.5-0.2c-0.3-0.3-0.3-0.7,0-0.9l3-3c-1.8-1.8-3.7-2.3-3.8-2.3
								c-0.3-0.1-0.6-0.4-0.5-0.8C1382.9,615,1383.2,614.8,1383.6,614.9z"/>
						</g>
					</g>
					<path class="st8" d="M1338.3,594c0,0,31.5,21.6,53.2,17.3c0,0,4.7-32.5-36.2-33.2C1355.3,578.1,1328.3,581.1,1338.3,594z"/>
					<ellipse class="st8" cx="1367.9" cy="617.3" rx="2.2" ry="2.2"/>
					<ellipse class="st8" cx="1348.2" cy="617.3" rx="2.2" ry="2.2"/>
					<g>
						<g>
							<g>
								<path class="st8" d="M1373.5,611.7c-0.2,0-0.3,0-0.5-0.1c-3.1-2.7-8.1-0.9-8.1-0.9c-0.4,0.1-0.7-0.1-0.8-0.5
									c-0.1-0.4,0.1-0.8,0.4-0.9c0.2-0.1,5.6-2,9.3,1.1c0.3,0.3,0.4,0.7,0.2,1.1C1373.8,611.6,1373.6,611.7,1373.5,611.7z"/>
							</g>
						</g>
					</g>
					<g>
						<g>
							<g>
								<path class="st8" d="M1343.1,611.3c-0.1-0.1-0.2-0.2-0.3-0.3c-0.2-0.3,0-0.8,0.3-1c3.9-2.5,8.1-0.6,8.2-0.5l0,0
									c0.3,0.2,0.4,0.6,0.3,1c-0.2,0.4-0.6,0.6-0.9,0.4c0,0-3.7-1.7-7,0.4C1343.5,611.4,1343.3,611.4,1343.1,611.3z"/>
							</g>
						</g>
					</g>
					<path class="st11" d="M1354.8,634.7l11.9,0.6c0,0-1.8,4.7-6.4,4.5C1355.7,639.5,1354.8,634.7,1354.8,634.7z"/>
					<path class="st33" d="M1416.8,1141.9c0,0-7,6.7-16.6,9.5c-11.8,3.4-18.6,7.2-42.1,6.1c-11.5,4.6-12.5,12-3.6,12
						c9.6,0,13.7,0.8,23.1-0.3c19.5-12.4,33-15.1,32.5,2.1l2.6,0.1c0,0,4.2-9.3,4.1-13.8C1416.7,1153,1416.8,1141.9,1416.8,1141.9z"
						/>
					<path class="st14" d="M1345.2,742.7c-1.7,0.4-20.1,4.5-29.2-12.3c-0.3-1.4-0.5-2.8-0.8-4.2c0,0,0,0,0,0
						S1323.4,746.5,1345.2,742.7z"/>
				</g>
				<g>
					<g>
						<path class="st31" d="M322.5,644.1c-13.5,0.3-38.2-191.1-50.1-252.2"/>
						<path class="st32" d="M220.7,350.3c7.3,23.4,32.7,48.9,52.4,42.8c19.6-6.1,26-41.6,18.7-65c-7.3-23.4-29.1-37.3-48.7-31.2
							C223.4,303.1,213.4,327,220.7,350.3z"/>
					</g>
					<g>
						<path class="st31" d="M323.2,637.2c-8.1-3.9-1.9-146.5-6.6-205.1"/>
						<path class="st7" d="M273.1,382.2c3.1,24.3,23.7,53.9,44.1,51.3c20.4-2.6,32.9-36.4,29.8-60.7c-3.1-24.3-22.1-41.9-42.5-39.3
							C284,336.2,270,357.9,273.1,382.2z"/>
					</g>
					<g>
						<path class="st31" d="M318.7,639.5c-11.5-2-53.5-128.6-73.1-179.2"/>
						<path class="st2" d="M187,429.3c11.6,21.5,41.4,41.8,59.6,32.1s17.6-45.8,6-67.4c-11.6-21.5-35.7-31.1-53.8-21.4
							S175.4,407.8,187,429.3z"/>
					</g>
					<polygon class="st4" points="672.2,1105.3 688.6,1126.7 654.8,1145.7 638.3,1125.8 					"/>
					<g>
						<path class="st2" d="M725.7,1127.8l-67.2,37.1l-6.5-11.7c-2.2-4-6.2-9.7-1.7-12.1c0,0,33.6-20.4,37.3-20.1
							c10.6,1,28.9-0.8,32.6,0.1c1.6,0.4,2.7,1.3,3.6,2.2C725.5,1125.2,725.7,1127.8,725.7,1127.8z"/>
						<path class="st2" d="M725.7,1127.8l-67.2,37.1l-2.4-4.3l67.6-37.3C725.5,1125.2,725.7,1127.8,725.7,1127.8z"/>
					</g>
					<polygon class="st4" points="367.4,1129.2 348,1148.1 323,1120.1 342.4,1099 					"/>
					<g>
						<path class="st2" d="M363.2,1181.1l-57.5-50.8l8.9-10c3-3.4,7-9.1,10.8-5.7c0,0,30.5,24.8,31.4,28.3
							c2.6,10.4,10.5,26.9,10.9,30.8c0.2,1.6-0.3,3-0.9,4.1C365.5,1180,363.2,1181.1,363.2,1181.1z"/>
						<path class="st2" d="M363.2,1181.1l-57.5-50.8l3.3-3.7l57.9,51.2C365.5,1180,363.2,1181.1,363.2,1181.1z"/>
					</g>
					<polygon class="st37" points="504.3,866.4 629.9,996.1 683.6,1111.3 639.5,1138.9 580.1,1029.7 450,911.4 					"/>
					<polygon class="st37" points="453.9,860.6 405.4,1023.8 332.7,1102.6 367.9,1139 451.1,1057.8 519.8,885.6 					"/>
					<path class="st2" d="M363.8,717.9c-4.4,18.2,42.8,30.3,66.1,40.5c12.1,5.3,25.8,5.5,41.4,1.9c5.3-4.2-0.8-32.3-15.7-41.5
						c0,0-7.1-1.6-20.9-4c-24.5-4.4-33.8-8.3-33.8-8.3l-17.2-2.9C374.2,702,365.3,708.5,363.8,717.9L363.8,717.9z"/>
					<path class="st4" d="M323.9,659.8c0,0-0.4-3.1-5.7-5.2c-5.3-2.1-11.1-7.7-16-17.1c-6.8-13.3-3.8-22.2,6.8-11.9
						c10.7,10.3,17.7,21.5,11.9,11.5c-2.9-5,2.8-5.1,7.1-1.8c4.3,3.2,15.9,16.9,15.9,16.9L323.9,659.8z"/>
					<path class="st2" d="M394.4,706.7l-50.8-64.6l-28.9,13.5c0,0,33.7,47,52,72.3c5.5,7.6,15.9,9.5,23.8,4.4l0,0
						C399,726.6,400.9,714.7,394.4,706.7z"/>
					<path class="st2" d="M600.8,761.8c-4.5,18.1-51.9,7.2-77.3,5.5c-13.2-0.9-25.4-7-37.7-17.4c-2.8-6.2,15.6-28.3,33.1-29.6
						c0,0,7,1.9,20.4,6.1c23.8,7.4,33.8,8.2,33.8,8.2l16.7,5.3C598.9,742.9,603.9,752.8,600.8,761.8L600.8,761.8z"/>
					<path class="st4" d="M660.8,713.5c0,0,3.6-3.5,8.3-6.7c4.7-3.3,9.3-4.3,16.9-11.6c10.8-10.3,10.9-19.7-2.6-13.5
						c-13.5,6.2-24.5,19.8-21.1,8.8c1.7-5.5-3.9-4.3-7.3-0.1c-3.4,4.1-11.1,10.1-11.1,10.1L660.8,713.5z"/>
					<path class="st2" d="M577.4,738.6l67.7-46.7l23.6,21.4c0,0-46.1,34.9-71,53.7c-7.5,5.6-18,4.4-24-2.8l0,0
						C567.1,756.3,568.9,744.3,577.4,738.6z"/>
					<path class="st8" d="M516.6,642.5c0,0,10.1-6.5,1.5-21.6c-5.4-9.5-37.3-3.7-54.3-1c-6.3,1-11,6.5-10.8,12.9l0.4,16.9
						L516.6,642.5z"/>
					<path class="st4" d="M470.5,687.6l2.2,35c0.6,9.5,16,13.8,22.6,14.3c9.5,0.7,12.5-6.9,11.9-16.4l-2.2-35L470.5,687.6z"/>
					<path class="st9" d="M470.5,687.6l1,15.9c6.2,7.6,21.2,8.5,34.9,3.5l-1.3-21.6L470.5,687.6z"/>
					<path class="st4" d="M515.9,630.4c0,0,5.5,46.5,2.1,55.5c-3.3,8.9-9,18.8-20.5,19.5c-12.3,0.7-28.5-4.7-33.6-17
						c-5.1-12.2-6.2-51.8-6.2-51.8L515.9,630.4z"/>
					<path class="st8" d="M463.6,638.1c0,0-4-6.5-10.3-2.8c0,0-3.7,2.9,0.3,27.1c3.3,20.1,12.7,29.8,12.7,29.8
						S466.2,661.3,463.6,638.1z"/>
					<path class="st8" d="M486,665.8c0.1,1.2,1.1,2,2.2,2c1.2-0.1,2-1.1,2-2.2c-0.1-1.2-1.1-2-2.2-2
						C486.8,663.7,486,664.7,486,665.8z"/>
					<path class="st8" d="M507.5,663c0.1,1.2,1.1,2,2.2,2c1.2-0.1,2-1.1,2-2.2c-0.1-1.2-1.1-2-2.2-2
						C508.3,660.9,507.4,661.9,507.5,663z"/>
					<path class="st11" d="M506.9,686.8l-14.8,1.1c0,0,2.6,6.3,8.3,5.8C506.1,693.3,506.9,686.8,506.9,686.8z"/>
					<g>
						
							<ellipse transform="matrix(0.6623 -0.7492 0.7492 0.6623 -342.9306 578.7698)" class="st4" cx="470.6" cy="669.8" rx="9" ry="9"/>
						<path class="st12" d="M466.5,667.6C466.5,667.6,466.5,667.5,466.5,667.6c0-0.1,0.1-0.1,0.1-0.1c1.3-1.5,3-2.3,4.1-2.6
							c0.6-0.1,1.2,0.3,1.3,0.9c0.1,0.6-0.3,1.2-0.9,1.3c-0.1,0-1.1,0.3-2.2,1.1l3.1,2.8c0.5,0.4,0.5,1.1,0.1,1.6
							c-0.2,0.2-0.5,0.3-0.8,0.4c-0.3,0-0.6-0.1-0.8-0.3l-2.9-2.7c-0.3,0.6-0.5,1.3-0.5,2.2c0,0.6-0.5,1.1-1.1,1.1c0,0-0.1,0-0.1,0
							c-0.6,0-1.1-0.6-1.1-1.2C464.9,670.2,465.6,668.7,466.5,667.6z"/>
					</g>
					<polygon class="st8" points="517.3,642.1 463.1,646.3 458.9,632.3 516.5,628.8 					"/>
					<path class="st2" d="M424.2,928.1c0,0,10.3,6,67,0.5c10.8-0.5,21.2-2.1,30.4-4c21.3-4.3,34.2-9.6,34.2-9.6
						c-12.5-136.6-30.5-189.1-33.5-192.4c-2.4-2.6-8.2-5.7-12.6-6.6c-2.2-0.4-1.6-0.2-2.9-0.7c-2.6,3.4-11.7,18.7-11.7,18.7
						s-20.1-16.9-22.9-16.9l-5.3,0.2c-3.4,0.1-7,0.3-8.6,0.8c-0.7,0.2-1.4,0.4-2.1,0.7c-1.4,0.4-2.9,1-4.5,1.5
						c-7,2.5-8.1,5.1-10.1,8.1C435.5,737.4,424.6,894.9,424.2,928.1z"/>
					<polygon class="st13" points="472.1,713.9 465.4,717.7 483.5,741.9 488.7,731 495.1,734.1 					"/>
					<polygon class="st13" points="506.6,712.5 512.8,716.9 506.8,741.9 500.5,730.2 495.2,734 					"/>
					<polygon class="st13" points="496.7,732.8 500.3,777.4 496.4,777.3 493,733.1 					"/>
					<path class="st38" d="M476.8,664.6c-0.3,5.4,3.9,10.1,9.3,10.4c5.4,0.3,10.1-3.9,10.4-9.3c0.3-5.4-3.9-10.1-9.3-10.4
						C481.7,655,477,659.2,476.8,664.6z"/>
					<path class="st38" d="M501.3,662.1c-0.3,5.4,3.9,10.1,9.3,10.4c5.4,0.3,10.1-3.9,10.4-9.3c0.3-5.4-3.9-10.1-9.3-10.4
						C506.3,652.5,501.6,656.7,501.3,662.1z"/>
					<line class="st38" x1="501" y1="663.4" x2="496.8" y2="664"/>
					<line class="st38" x1="464.8" y1="662" x2="476.5" y2="665.8"/>
					<polygon class="st14" points="535.5,768.5 528.6,740.1 541,769.2 					"/>
					<path class="st14" d="M436.1,760.7l9.3,2.1l-12.9,34.4C432.6,797.2,435.3,767.6,436.1,760.7z"/>
					<polygon class="st39" points="493.7,951.1 504.9,947.7 541,994.2 					"/>
				</g>
			</g>
			<g>
				<g>
					<g>
						<path class="st2" d="M1315.6,170.8c-3,0-6-0.1-9.1-0.4l2.8-30.7c40.5,3.8,73.1-31,73.5-31.4l22.8,20.8
							C1403.9,130.9,1366.9,170.8,1315.6,170.8z"/>
					</g>
				</g>
				<g>
					<path class="st2" d="M334.7,210.7c-3,0-6-0.1-9.1-0.4l2.8-30.7c40.5,3.8,73.1-31,73.5-31.4l22.8,20.8
						C423,170.8,386,210.7,334.7,210.7z"/>
				</g>
				<g>
					<g>
						<path class="st1" d="M170,839.7c-3,0-6-0.1-9.1-0.4l2.8-30.7c40.5,3.8,73.1-31,73.5-31.4L260,798
							C258.3,799.8,221.3,839.7,170,839.7z"/>
					</g>
				</g>
				<g>
					<path class="st16" d="M1078.6,794.1c-3,0-6-0.1-9.1-0.4l2.8-30.7c40.5,3.8,73.1-31,73.5-31.4l22.8,20.8
						C1166.9,754.2,1129.9,794.1,1078.6,794.1z"/>
				</g>
				<g>
					<path class="st29" d="M666.2,513.8c-3,0-6-0.1-9.1-0.4l2.8-30.7c40.5,3.8,73.1-31,73.5-31.4l22.8,20.8
						C754.6,473.9,717.6,513.8,666.2,513.8z"/>
				</g>
				<g>
					<g>
						<path class="st1" d="M1407.5,531.5c-3,0-6-0.1-9.1-0.4l2.8-30.7c40.5,3.8,73.1-31,73.5-31.4l22.8,20.8
							C1495.8,491.6,1458.8,531.5,1407.5,531.5z"/>
					</g>
				</g>
				<g>
					<g>
						<path class="st1" d="M894.2,62.5c-3,0-6-0.1-9.1-0.4l2.8-30.7c40.5,3.8,73.1-31,73.5-31.4l22.8,20.8
							C982.6,22.6,945.6,62.5,894.2,62.5z"/>
					</g>
				</g>
			</g>
			<g class="st40">
				<path class="st11" d="M235.5,318.9c-1.9,5.2-4.8,8.9-6.5,8.3c-1.7-0.6-1.6-5.3,0.3-10.5c1.9-5.2,4.8-8.9,6.5-8.3
					C237.5,308.9,237.4,313.6,235.5,318.9z"/>
				<path class="st11" d="M229.8,340.3c0,3.1-0.8,5.5-1.8,5.5c-1,0-1.8-2.5-1.8-5.5s0.8-5.5,1.8-5.5
					C229,334.8,229.8,337.3,229.8,340.3z"/>
			</g>
			<g class="st40">
				<path class="st11" d="M199.3,394.1c-1.9,5.2-4.8,8.9-6.5,8.3c-1.7-0.6-1.6-5.3,0.3-10.6c1.9-5.2,4.8-8.9,6.5-8.3
					C201.3,384.2,201.2,388.9,199.3,394.1z"/>
				<path class="st11" d="M193.6,415.6c0,3.1-0.8,5.5-1.8,5.5c-1,0-1.8-2.5-1.8-5.5c0-3.1,0.8-5.5,1.8-5.5
					C192.8,410.1,193.6,412.5,193.6,415.6z"/>
			</g>
			<g class="st40">
				<path class="st11" d="M324.9,352.9c3.2,4.5,7.1,7.3,8.5,6.2c1.5-1.1,0-5.6-3.2-10.1c-3.2-4.5-7.1-7.3-8.5-6.2
					C320.2,344,321.6,348.5,324.9,352.9z"/>
				<path class="st11" d="M336.3,372c0.8,2.9,2.3,5.1,3.3,4.8c1-0.3,1.1-2.9,0.2-5.8c-0.8-2.9-2.3-5.1-3.3-4.8
					C335.6,366.5,335.5,369.1,336.3,372z"/>
			</g>
			<g class="st40">
				<path class="st11" d="M1661.4,441.7c-0.2,6.5,1.4,11.8,3.5,11.9s4-5.2,4.2-11.7c0.2-6.5-1.4-11.8-3.5-11.9
					C1663.5,429.9,1661.6,435.2,1661.4,441.7z"/>
				<path class="st11" d="M1658.4,467.6c-1.3,3.3-1.5,6.4-0.4,6.8c1.1,0.4,3-1.9,4.4-5.3c1.3-3.3,1.5-6.4,0.4-6.8
					C1661.7,461.9,1659.7,464.2,1658.4,467.6z"/>
			</g>
			<g class="st40">
				<path class="st11" d="M1621.8,367.7c0.6,6.5,2.7,11.6,4.9,11.4c2.1-0.2,3.4-5.6,2.8-12.1s-2.7-11.6-4.9-11.4
					S1621.2,361.3,1621.8,367.7z"/>
				<path class="st11" d="M1621.8,393.8c-0.9,3.5-0.7,6.5,0.4,6.8c1.1,0.3,2.8-2.3,3.7-5.7c0.9-3.5,0.7-6.5-0.4-6.8
					C1624.4,387.8,1622.7,390.4,1621.8,393.8z"/>
			</g>
			<g class="st40">
				<path class="st11" d="M1526.7,402.1c-2.8,5.9-6.6,9.9-8.6,9c-1.9-0.9-1.2-6.4,1.6-12.3c2.8-5.9,6.6-9.9,8.6-9
					C1530.3,390.7,1529.5,396.2,1526.7,402.1z"/>
				<path class="st11" d="M1517.5,426.5c-0.4,3.6-1.6,6.4-2.8,6.2c-1.2-0.1-1.8-3.1-1.5-6.7s1.6-6.4,2.8-6.2
					C1517.2,419.9,1517.9,422.9,1517.5,426.5z"/>
			</g>
		</g>
	</g>
	<g>
		<g>
			<g>
				<path class="st41" d="M1467.4,989.5c0,0-12.5-2.7-26.9-9l0.5-5l-8.5,1.2l0,0c-7.5-3.8-15-8.7-21.1-14.5
					c-4.5-4.4-8.2-9.3-10.5-14.8l0,0l1.4-4.5c0,0-1.5-0.7-3.4-1.6c-3.7-13.8-5-28.4-6.8-42.2l3.9-5.3l-4.6,0.5
					c-2.5-16.7-6.6-31.7-18.1-41.8c0,0,19.6,3.9,36.2,18.3l-0.6,2.5l2.4-0.9c4.4,4.1,8.6,8.9,12,14.7c0,0,0,0,0,0
					c2.9,4.9,5.3,10.4,6.9,16.7c0.1,0.6,0.3,1.1,0.5,1.7l0,0l-4.6,4.4l6,0c6.9,19.5,19.6,26,28.1,36.7l-3.6,2.8l5.7,0.1
					C1467.7,957.6,1470.7,968.9,1467.4,989.5z"/>
				<path class="st42" d="M1408.8,904.4c-2.3,18.1,12.2,39.9,2.5,57.9c-4.5-4.4-8.2-9.3-10.5-14.8l0,0l1.4-4.5c0,0-1.5-0.7-3.4-1.6
					c-3.7-13.8-5-28.4-6.8-42.2l3.9-5.3l-4.6,0.5c-2.5-16.7-6.6-31.7-18.1-41.8c0,0,19.6,3.9,36.2,18.3l-0.6,2.5l2.4-0.9
					c4.4,4.1,8.6,8.9,12,14.7C1416.3,890.2,1410,895.5,1408.8,904.4z"/>
				<path class="st43" d="M1475.4,1085.8c2.6-18.3,3.4-37.1,1.7-55.6c-0.9-9.3-2.5-18.5-5.1-27.3c-2.7-8.9-6.5-17.5-12.2-24.8
					c-11.8-14.4-24.9-27.9-35.9-43.1c-5.5-7.6-10.2-15.8-13.4-24.6c-3.2-8.8-4.8-18.2-4.9-27.5c0.2,9.4,1.9,18.7,5.2,27.4
					c3.3,8.7,8.1,16.8,13.7,24.3c11.2,15,24.4,28.2,36.5,42.6c5.9,7.4,9.9,16.2,12.7,25.1c2.8,9,4.5,18.3,5.5,27.7
					c1.9,18.7,1.4,37.6-1,56.3L1475.4,1085.8z"/>
			</g>
			<g>
				<path class="st41" d="M1496.3,1013.8c0,0,10,0.2,22.1-1.9l0.6-3.9l6.3,2.5l0,0c6.4-1.6,13-3.8,18.7-7.2
					c4.2-2.5,7.9-5.6,10.7-9.4l0,0l-0.3-3.7c0,0,1.2-0.2,2.9-0.6c5.3-9.8,8.9-20.7,12.9-30.9l-2-4.8l3.4,1.2
					c4.9-12.2,10.8-22.9,21.4-28.6c0,0-15.6-0.6-30.9,7.4l0,2l-1.6-1.1c-4.1,2.3-8.2,5.2-11.8,9c0,0,0,0,0,0
					c-3.1,3.2-5.9,7-8.3,11.5c-0.2,0.4-0.4,0.8-0.7,1.2l0,0l2.7,4.2l-4.6-1.1c-8.8,13.6-19.7,16.2-28.1,22.8l2.3,2.8l-4.4-1
					C1501.9,989.4,1497.6,997.5,1496.3,1013.8z"/>
				<path class="st42" d="M1556.4,959.6c-1.6,14.2-16.6,28.1-12.5,43.6c4.2-2.5,7.9-5.6,10.7-9.4l0,0l-0.3-3.7c0,0,1.2-0.2,2.9-0.6
					c5.3-9.8,8.9-20.7,12.9-30.9l-2-4.8l3.4,1.2c4.9-12.2,10.8-22.9,21.4-28.6c0,0-15.6-0.6-30.9,7.4l0,2l-1.6-1.1
					c-4.1,2.3-8.2,5.2-11.8,9C1553.3,947.4,1557.2,952.6,1556.4,959.6z"/>
				<path class="st43" d="M1472.7,1085.7c1.3-14.4,4.2-28.9,8.8-42.7c2.4-6.9,5.2-13.6,8.9-19.9c3.7-6.2,8.1-12.1,13.8-16.7
					c11.6-8.8,24.1-16.7,35.2-26.3c5.5-4.8,10.7-10.2,14.7-16.3c4.1-6.1,6.9-13,8.7-20.1c-1.9,7.1-4.8,13.9-8.9,19.9
					c-4.1,6.1-9.3,11.3-14.8,16c-11.2,9.4-23.7,17.1-35.6,25.8c-5.8,4.6-10.5,10.5-14.3,16.8c-3.8,6.3-6.8,13.1-9.3,20.1
					c-4.9,13.9-7.9,28.4-9.5,43.1L1472.7,1085.7z"/>
			</g>
			<g>
				<path class="st41" d="M1462.9,1027.5c0,0-6.2,0.9-13.9,0.6l-0.7-2.4l-3.7,2.1l0,0c-4.1-0.4-8.4-1.3-12.3-3
					c-2.8-1.2-5.4-2.8-7.4-5l0,0l-0.1-2.3c0,0-0.8,0-1.9-0.1c-4.1-5.7-7.3-12.2-10.5-18.2l0.9-3.1l-2,1c-4.1-7.2-8.6-13.4-15.6-16.1
					c0,0,9.7-1.6,19.9,2.1l0.1,1.2l0.9-0.8c2.7,1.1,5.5,2.6,8.1,4.7c0,0,0,0,0,0c2.2,1.7,4.3,3.9,6.1,6.5c0.2,0.2,0.3,0.5,0.5,0.7
					l0,0l-1.4,2.8l2.8-1.1c6.6,7.8,13.6,8.5,19.4,12l-1.2,1.9l2.6-1C1457.4,1012.8,1460.8,1017.5,1462.9,1027.5z"/>
				<path class="st42" d="M1421,998.6c2.1,8.7,12.6,16.2,11.3,26.2c-2.8-1.2-5.4-2.8-7.4-5l0,0l-0.1-2.3c0,0-0.8,0-1.9-0.1
					c-4.1-5.7-7.3-12.2-10.5-18.2l0.9-3.1l-2,1c-4.1-7.2-8.6-13.4-15.6-16.1c0,0,9.7-1.6,19.9,2.1l0.1,1.2l0.9-0.8
					c2.7,1.1,5.5,2.6,8.1,4.7C1422,990.7,1420,994.3,1421,998.6z"/>
				<path class="st43" d="M1483.4,1070.5c-2-8.9-5-17.7-9-25.9c-2-4.1-4.4-8.1-7.2-11.7c-2.8-3.6-6.1-6.9-9.9-9.3
					c-8-4.6-16.4-8.5-24.1-13.5c-3.8-2.5-7.5-5.5-10.5-9c-3-3.5-5.4-7.5-7.1-11.8c1.7,4.3,4.1,8.3,7.2,11.7c3,3.5,6.7,6.3,10.6,8.8
					c7.8,5,16.2,8.7,24.3,13.2c4,2.4,7.4,5.7,10.3,9.3c2.9,3.7,5.3,7.6,7.4,11.8c4.2,8.3,7.3,17.1,9.4,26.1L1483.4,1070.5z"/>
			</g>
			<g>
				<path class="st41" d="M1481.1,979.7c0,0,12.5-5,26.4-13.9l-1.3-5.1l9.1-0.2l0,0c7.2-5.3,14.2-11.6,19.4-18.7
					c3.9-5.3,6.9-11,8.4-17.2l0,0l-2.2-4.4c0,0,1.4-0.9,3.3-2.3c1.5-14.9,0.3-30.4-0.1-45l-4.9-4.9l4.8-0.3
					c-0.3-17.7,1.4-34,11.6-46.5c0,0-19.7,7.4-34.5,25.2l1.1,2.5l-2.6-0.6c-3.9,5-7.4,10.7-9.9,17.3c0,0,0,0,0,0
					c-2.2,5.5-3.7,11.7-4.3,18.5c-0.1,0.6-0.1,1.2-0.2,1.8l0,0l5.5,3.8l-6.2,1c-3.9,21.5-15.9,30.3-22.9,42.9l4.3,2.3l-5.9,1
					C1475.4,946.6,1474.2,958.8,1481.1,979.7z"/>
				<path class="st42" d="M1527.4,881.3c5.5,18.4-5.9,43.5,7.2,60.5c3.9-5.3,6.9-11,8.4-17.2l0,0l-2.2-4.4c0,0,1.4-0.9,3.3-2.3
					c1.5-14.9,0.3-30.4-0.1-45l-4.9-4.9l4.8-0.3c-0.3-17.7,1.4-34,11.6-46.5c0,0-19.7,7.4-34.5,25.2l1.1,2.5l-2.6-0.6
					c-3.9,5-7.4,10.7-9.9,17.3C1517.2,867.8,1524.7,872.2,1527.4,881.3z"/>
				<path class="st43" d="M1489.3,1081c-5.9-18.6-9.9-38-11.3-57.5c-0.7-9.8-0.6-19.6,0.6-29.3c1.3-9.7,3.8-19.3,8.4-27.8
					c9.8-17,21.1-33.2,30-50.9c4.4-8.8,7.9-18.1,9.7-27.9c1.8-9.7,1.9-19.7,0.3-29.4c1.4,9.7,1.2,19.7-0.7,29.4
					c-1.9,9.6-5.6,18.9-10,27.6c-9,17.5-20.5,33.5-30.6,50.5c-4.9,8.7-7.5,18.5-8.9,28.3c-1.4,9.8-1.6,19.8-1,29.7
					c1.2,19.8,4.9,39.3,10.7,58.3L1489.3,1081z"/>
			</g>
		</g>
		<g>
			<g>
				<polygon class="st44" points="1478.4,1119.9 1460.4,1119.9 1465.4,1128.3 1478.4,1128.3 1491.4,1128.3 1496.4,1119.9 				"/>
				<g>
					<polygon class="st16" points="1521.7,1057.5 1514.4,1086.2 1505.7,1120.3 1451,1120.3 1435.1,1057.5 					"/>
					<polygon class="st45" points="1475.7,1120.3 1451,1120.3 1435.1,1057.5 1445.1,1057.5 					"/>
					<path class="st44" d="M1521.7,1057.5l-7.3,28.7c-6.5-9-14.9-20.8-20.8-28.7H1521.7z"/>
				</g>
				<g>
					<rect x="1426.9" y="1051.8" class="st18" width="105.4" height="17.8"/>
					<path class="st46" d="M1455.9,1069.6h-28.9v-17.8h12.3C1445.1,1058,1451.1,1064.5,1455.9,1069.6z"/>
					<path class="st47" d="M1532.3,1051.8v17.8h-6.8c-6.1-4.8-15.2-12.1-22.3-17.8H1532.3z"/>
				</g>
			</g>
			<g>
				<g>
					<polygon class="st48" points="1517.8,1096.9 1530.4,1183.4 1526,1183.4 1508.2,1096.9 					"/>
					<polygon class="st48" points="1440.2,1096.9 1427.5,1183.4 1431.9,1183.4 1449.7,1096.9 					"/>
					<path class="st1" d="M1531.8,1096.9c0,1-0.4,1.8-1,2.5c-0.6,0.6-1.5,1-2.5,1H1431c-1.9,0-3.5-1.5-3.5-3.5c0-1,0.4-1.8,1-2.5
						c0.6-0.6,1.5-1,2.5-1h97.3C1530.2,1093.4,1531.8,1094.9,1531.8,1096.9z"/>
				</g>
				<path class="st49" d="M1460.6,1100.3H1431c-1.9,0-3.5-1.5-3.5-3.5c0-1,0.4-1.8,1-2.5c0.6-0.6,1.5-1,2.5-1h26.4
					C1458.4,1095.6,1459.5,1098,1460.6,1100.3z"/>
				<polygon class="st50" points="1439.7,1100.3 1438.1,1111.1 1449,1100.3 				"/>
				<polygon class="st50" points="1518.3,1100.3 1519.8,1111.1 1508.9,1100.3 				"/>
			</g>
		</g>
	</g>
	<g>
		<g>
			<g>
				<polygon class="st1" points="89.4,1001.4 78.2,1179.5 84.4,1179.5 103.7,1001.4 				"/>
				<polygon class="st1" points="193.7,1001.4 204.9,1179.5 198.7,1179.5 179.4,1001.4 				"/>
			</g>
			<g>
				<path class="st17" d="M221.2,995.9c0,2.8-1.1,5.3-2.9,7.1c-1.8,1.8-4.3,2.9-7.1,2.9H82.1c-5.5,0-10-4.5-10-10
					c0-2.8,1.1-5.3,2.9-7.1c1.8-1.8,4.3-2.9,7.1-2.9h129.1C216.7,985.9,221.2,990.4,221.2,995.9z"/>
				<path class="st46" d="M137.4,1005.9H82.1c-5.5,0-10-4.5-10-10c0-2.8,1.1-5.3,2.9-7.1c1.8-1.8,4.3-2.9,7.1-2.9h39.2L137.4,1005.9
					z"/>
				<path class="st44" d="M221.2,995.9c0,2.8-1.1,5.3-2.9,7.1c-1.8,1.8-4.3,2.9-7.1,2.9h-7.1c-6.6-5.2-15.8-12.4-25.6-20h32.7
					C216.7,985.9,221.2,990.4,221.2,995.9z"/>
			</g>
			<polygon class="st51" points="103.3,1005.9 99.1,1043.9 89.1,1005.9 			"/>
			<polygon class="st51" points="179.9,1005.9 184,1043.9 194,1005.9 			"/>
		</g>
		<g>
			<g>
				<g>
					<path class="st41" d="M131.2,907c0,0-19.7,1.2-35.6-10.4c-13.3-9.7-23.9-28.4-17.9-64.5c0,0,13.9,2.6,27.5,12.7
						C119.6,855.4,133.7,874.3,131.2,907z"/>
					<path class="st42" d="M105.3,844.8l-9.6,51.8c-13.3-9.7-23.9-28.4-17.9-64.5C77.8,832.1,91.7,834.8,105.3,844.8z"/>
					<path class="st52" d="M142.8,956.9c-0.6-5.1-1.4-10.2-2.4-15.3c-1-5.1-2.1-10.1-3.4-15.1c-2.6-10-5.9-19.9-10-29.3
						c-0.5-1.2-1-2.4-1.6-3.5l-1.7-3.5c-1.2-2.3-2.4-4.6-3.7-6.8c-1.3-2.3-2.7-4.4-4.1-6.6l-2.2-3.2c-0.7-1.1-1.6-2.1-2.3-3.1
						l-1.2-1.5l-1.3-1.5l-1.3-1.5l-0.6-0.7l-0.7-0.7l-2.7-2.8l-2.9-2.6c-3.9-3.3-8.3-6.3-12.9-8.6c4.7,2.3,9,5.1,13.1,8.4l3,2.5
						l2.8,2.7l0.7,0.7l0.7,0.7l1.3,1.5l1.3,1.5l1.2,1.5c0.8,1,1.7,2,2.4,3.1l2.3,3.2c1.4,2.2,2.9,4.3,4.2,6.6
						c1.4,2.2,2.6,4.5,3.8,6.8l1.8,3.5c0.6,1.2,1.1,2.4,1.7,3.5c4.3,9.5,7.8,19.3,10.6,29.4c1.4,5,2.6,10.1,3.7,15.2
						c1.1,5.1,2,10.2,2.7,15.4L142.8,956.9z"/>
				</g>
				<g>
					<path class="st41" d="M154.2,918.4c0,0,13.4,2.3,25.1-4.5c9.8-5.7,18.5-17.7,16.9-42.9c0,0-9.7,0.8-19.7,6.7
						C166,883.9,154.9,895.8,154.2,918.4z"/>
					<path class="st42" d="M176.5,877.7l2.8,36.2c9.8-5.7,18.5-17.7,16.9-42.9C196.3,871,186.6,871.8,176.5,877.7z"/>
					<path class="st52" d="M142.7,951.7c0.8-3.4,1.7-6.9,2.8-10.3c1-3.4,2.2-6.8,3.4-10.1c2.5-6.7,5.5-13.2,9-19.4
						c0.5-0.8,0.9-1.6,1.3-2.3l1.4-2.3c1-1.5,1.9-3,3-4.4c1-1.5,2.2-2.8,3.3-4.2l1.8-2c0.6-0.7,1.2-1.3,1.8-1.9l0.9-1l1-0.9l1-0.9
						l0.5-0.5l0.5-0.4l2.1-1.7l2.2-1.6c2.9-2,6.1-3.7,9.5-5c-3.4,1.2-6.6,2.9-9.6,4.8l-2.2,1.5l-2.1,1.7l-0.5,0.4l-0.5,0.4l-1,0.9
						l-1,0.9l-1,1c-0.6,0.6-1.3,1.3-1.9,1.9l-1.8,2c-1.1,1.4-2.3,2.7-3.4,4.2c-1.1,1.4-2.1,2.9-3.1,4.4l-1.5,2.3
						c-0.5,0.8-0.9,1.5-1.4,2.3c-3.7,6.2-6.7,12.7-9.4,19.3c-1.3,3.3-2.5,6.7-3.6,10.1c-1.1,3.4-2.1,6.8-3,10.4L142.7,951.7z"/>
				</g>
				<g>
					<path class="st41" d="M143,890.1c0,0,22.4-4.5,36.8-22.1c12-14.8,18.4-38.9,0.9-77.4c0,0-14.7,7-27,22.3
						C140.8,829,130.6,854.2,143,890.1z"/>
					<path class="st42" d="M153.7,812.9l26.1,55.1c12-14.8,18.4-38.9,0.9-77.4C180.7,790.6,165.9,797.6,153.7,812.9z"/>
					<path class="st52" d="M144.8,949.4c-0.9-5.9-1.4-11.8-1.8-17.8c-0.4-6-0.6-12-0.6-17.9c0-12,0.7-24,2.5-35.8
						c0.2-1.5,0.4-3,0.7-4.4l0.8-4.4c0.7-2.9,1.3-5.8,2.1-8.7c0.7-2.9,1.7-5.7,2.6-8.6l1.5-4.2c0.5-1.4,1.1-2.8,1.7-4.1l0.9-2.1l1-2
						l1-2l0.5-1l0.6-1l2.2-3.9l2.5-3.7c3.4-4.9,7.4-9.5,11.9-13.5c-4.6,3.9-8.6,8.4-12.1,13.3l-2.6,3.7l-2.3,3.9l-0.6,1l-0.5,1l-1,2
						l-1,2l-0.9,2.1c-0.6,1.4-1.3,2.7-1.8,4.1l-1.6,4.2c-1,2.9-2,5.7-2.8,8.6c-0.9,2.9-1.5,5.8-2.3,8.7l-0.9,4.4
						c-0.3,1.5-0.5,3-0.8,4.4c-2.1,11.9-3,23.9-3.2,36c-0.1,6,0,12.1,0.3,18.1c0.3,6,0.8,12,1.5,18L144.8,949.4z"/>
				</g>
			</g>
			<g>
				<polygon class="st16" points="168.1,937.6 164,958.8 158.7,985.9 125.7,985.9 116.6,937.6 				"/>
				<path class="st45" d="M150.5,985.9h-24.8l-9.1-48.3h9.5C132.7,950.8,146,977,150.5,985.9z"/>
				<polygon class="st44" points="168.1,937.6 164,958.8 155.2,937.6 				"/>
			</g>
			<g>
				<path class="st18" d="M171.5,938.6v1.5c0,2.2-1.8,4-4,4h-50.3c-2.2,0-4-1.8-4-4v-1.5c0-2.2,1.8-4,4-4h50.3
					C169.7,934.6,171.5,936.4,171.5,938.6z"/>
				<path class="st46" d="M128.5,944.1h-11.3c-2.2,0-4-1.8-4-4v-1.5c0-2.2,1.8-4,4-4h5.5C124.4,937.4,126.5,940.9,128.5,944.1z"/>
				<path class="st47" d="M171.5,938.6v1.5c0,2.2-1.8,4-4,4h-0.1c-2.8-3.3-5.9-7-8.2-9.5h8.3C169.7,934.6,171.5,936.4,171.5,938.6z"
					/>
			</g>
		</g>
	</g>
</g>
</svg>
