<?xml version="1.0" encoding="utf-8"?>
<!-- Generator: Adobe Illustrator 28.0.0, SVG Export Plug-In . SVG Version: 6.00 Build 0)  -->
<svg version="1.1" id="Layer_1" xmlns="http://www.w3.org/2000/svg" xmlns:xlink="http://www.w3.org/1999/xlink" x="0px" y="0px"
	 viewBox="0 0 359.4 329.4" style="enable-background:new 0 0 359.4 329.4;" xml:space="preserve">
<style type="text/css">
	.st0{fill:#9ADAEE;}
	.st1{fill:#41AFE4;}
	.st2{fill:#FFFFFF;}
	.st3{fill:#45B0E4;}
	.st4{fill:#F8B5BE;}
	.st5{fill:#EF5196;}
	.st6{fill:#FAD49E;}
	.st7{fill:#FAAE22;}
</style>
<g>
	<path class="st0" d="M148.5,22.8l2.2,5.8c2.8,9.7,11.6,16.3,21.6,16.3H187c10,0,18.9-6.7,21.6-16.3l0.1-0.5l2-5.3
		C190.1,30.9,169.2,30.9,148.5,22.8z"/>
	<path class="st1" d="M223.9,0C223.9,0,223.9,0,223.9,0C223.9,0,223.9,0,223.9,0z"/>
	<path class="st1" d="M141.7,4.9l6.8,17.9c20.7,8.1,41.6,8.1,62.3,0l6.8-17.9c0.9-2.4,3.1-4.2,5.6-4.7c-0.9,0.2-1.7,0.5-2.5,1
		c-27.6,17.1-54.4,17.1-82,0c-0.8-0.5-1.6-0.8-2.4-1C138.7,0.7,140.8,2.5,141.7,4.9z"/>
	<path class="st1" d="M135.4,0C135.5,0,135.5,0,135.4,0C135.5,0,135.5,0,135.4,0z"/>
	<path class="st2" d="M82.4,289.1v25.3H277V149.7V67.4c0-4.1,3.4-7.5,7.5-7.5c4.1,0,7.5,3.4,7.5,7.5v73l50.2-11.1l-29.9-88.8
		c-1.9-6.3-7.7-10.6-14.4-10.6l-1.8-0.2l-28.1-7.4l-38.5-6.4l-6.6,17.2c-4.6,15.8-19.4,26.8-35.9,26.8h-14.7
		c-16.5,0-31.2-11-35.9-26.8L130,15.9l-38.6,6.4L61.5,30c-6.7,0-12.4,4.3-14.4,10.6v0.2l-29.9,88.6l50.2,11.1v-73
		c0-4.1,3.4-7.5,7.5-7.5c4.1,0,7.5,3.4,7.5,7.5v82.3v79.5c0,4.1-3.4,7.5-7.5,7.5v15c4.1,0,7.5,3.4,7.5,7.5c0,4.1-3.4,7.5-7.5,7.5v15
		C79,281.6,82.4,285,82.4,289.1z M209.6,104.8c16.5,0,29.9,13.4,29.9,29.9c0,16.5-13.4,29.9-29.9,29.9c-16.5,0-29.9-13.4-29.9-29.9
		C179.7,118.2,193.1,104.8,209.6,104.8z M105.6,228.7l37.4-74.9c1.2-2.4,3.6-4,6.2-4.1c2.6-0.2,5.2,1.1,6.7,3.3l26.3,39.4l24-12
		c3.1-1.6,6.9-0.8,9.1,1.9l37.4,44.9c1.9,2.2,2.3,5.3,1,8c-1.2,2.6-3.9,4.3-6.8,4.3H112.3c-2.6,0-5-1.3-6.4-3.6
		C104.6,233.8,104.4,231.1,105.6,228.7z"/>
	<path class="st3" d="M359,132.4l-32.5-96.3c-3.8-12.2-14.9-20.7-27.6-21.1l-27.5-7.3l-45.5-7.6c-0.7-0.1-1.3-0.1-2,0c0,0,0,0,0,0
		c-0.3,0-0.5,0.1-0.8,0.1c-2.5,0.5-4.6,2.3-5.6,4.7l-6.8,17.9l-2,5.3l-0.1,0.5c-2.8,9.7-11.6,16.3-21.6,16.3h-14.7
		c-10,0-18.9-6.7-21.6-16.3l-2.2-5.8l-6.8-17.9c-0.9-2.4-3-4.2-5.5-4.7c-0.3-0.1-0.5-0.1-0.8-0.1c0,0,0,0,0,0
		c-0.6-0.1-1.3-0.1-1.9,0l-45,7.5L60.5,15c-12.7,0.5-23.8,8.9-27.5,21.1L0.4,132.4c-0.7,2-0.4,4.2,0.6,6.1c1,1.9,2.8,3.2,4.9,3.7
		l61.5,13.6v73.5c0,4.1,3.4,7.5,7.5,7.5c4.1,0,7.5-3.4,7.5-7.5v-79.5c0,4.1-3.4,7.5-7.5,7.5c-4.1,0-7.5-3.4-7.5-7.5v-9.4l-50.2-11.1
		l29.9-88.6v-0.2C49.1,34.2,54.9,30,61.5,30l29.9-7.6l38.6-6.4l6.4,17.2c4.7,15.8,19.5,26.8,35.9,26.8H187c16.5,0,31.2-11,35.9-26.8
		l6.6-17.2l38.5,6.4l28.1,7.4l1.8,0.2c6.7,0,12.4,4.3,14.4,10.6l29.9,88.8L292,140.4v9.4c0,4.1-3.4,7.5-7.5,7.5
		c-4.1,0-7.5-3.4-7.5-7.5v164.7H82.4v-25.3c0-4.1-3.4-7.5-7.5-7.5c-4.1,0-7.5,3.4-7.5,7.5v32.8c0,1.9,0.8,3.9,2.2,5.3
		c1.4,1.3,3.4,2.2,5.3,2.2h209.6c2,0,3.9-0.7,5.3-2.2c1.4-1.4,2.2-3.3,2.2-5.3V155.7l61.5-13.6c2-0.4,3.8-1.8,4.9-3.7
		C359.4,136.6,359.6,134.4,359,132.4z"/>
	
		<ellipse transform="matrix(0.1222 -0.9925 0.9925 0.1222 -191.5101 301.8177)" class="st3" cx="74.9" cy="259.2" rx="7.5" ry="7.5"/>
	<path class="st3" d="M74.9,59.9c-4.1,0-7.5,3.4-7.5,7.5v73v9.4c0,4.1,3.4,7.5,7.5,7.5c4.1,0,7.5-3.4,7.5-7.5V67.4
		C82.4,63.3,79,59.9,74.9,59.9z"/>
	<path class="st3" d="M284.5,59.9c-4.1,0-7.5,3.4-7.5,7.5v82.3c0,4.1,3.4,7.5,7.5,7.5c4.1,0,7.5-3.4,7.5-7.5v-9.4v-73
		C292,63.3,288.6,59.9,284.5,59.9z"/>
	<path class="st4" d="M231.1,224.6l-23.4-28.1L183,208.8c-3.4,1.7-7.5,0.6-9.6-2.5l-22.8-34.2l-26.2,52.5H231.1z"/>
	<path class="st5" d="M112.3,239.6h134.8c2.9,0,5.5-1.7,6.8-4.3c1.2-2.6,0.8-5.7-1-8l-37.4-44.9c-2.2-2.7-6-3.5-9.1-1.9l-24,12
		L156,153.1c-1.5-2.2-4.1-3.5-6.7-3.3c-2.7,0.2-5,1.7-6.2,4.1l-37.4,74.9c-1.2,2.3-1,5.1,0.3,7.3
		C107.3,238.2,109.7,239.6,112.3,239.6z M173.4,206.3c2.1,3.1,6.2,4.2,9.6,2.5l24.6-12.3l23.4,28.1H124.4l26.2-52.5L173.4,206.3z"/>
	
		<ellipse transform="matrix(0.9966 -8.248091e-02 8.248091e-02 0.9966 -10.4008 17.7489)" class="st6" cx="209.6" cy="134.8" rx="15" ry="15"/>
	<path class="st7" d="M209.6,164.7c16.5,0,29.9-13.4,29.9-29.9c0-16.5-13.4-29.9-29.9-29.9c-16.5,0-29.9,13.4-29.9,29.9
		C179.7,151.3,193.1,164.7,209.6,164.7z M209.6,119.8c8.3,0,15,6.7,15,15c0,8.3-6.7,15-15,15c-8.3,0-15-6.7-15-15
		C194.6,126.5,201.4,119.8,209.6,119.8z"/>
</g>
</svg>
