<?xml version="1.0" encoding="utf-8"?>
<!-- Generator: Adobe Illustrator 28.0.0, SVG Export Plug-In . SVG Version: 6.00 Build 0)  -->
<svg version="1.1" id="Warstwa_1" xmlns="http://www.w3.org/2000/svg" xmlns:xlink="http://www.w3.org/1999/xlink" x="0px" y="0px"
	 viewBox="0 0 664.7 141" style="enable-background:new 0 0 664.7 141;" xml:space="preserve">
<style type="text/css">
	.st0{display:none;}
	.st1{display:inline;fill:#3F8D4C;stroke:#000000;stroke-width:5;stroke-linecap:round;stroke-miterlimit:10;}
	.st2{display:inline;}
	.st3{fill:#FFFFFF;}
	.st4{display:none;enable-background:new    ;}
	.st5{fill:#0099CC;stroke:#000000;stroke-width:4;stroke-linecap:round;stroke-miterlimit:10;}
	.st6{enable-background:new    ;}
	.st7{fill:#E2E2E2;}
</style>
<g class="st0">
	<circle class="st1" cx="93.7" cy="90.5" r="85.7"/>
	<g class="st2">
		<polygon class="st3" points="34.6,149.6 34.6,34.1 93.7,106.1 152.9,34.1 152.9,149.6 		"/>
		<path d="M151.4,38.3v109.9H36.1V38.3l55.3,67.4l2.3,2.8l2.3-2.8L151.4,38.3 M154.4,29.9l-60.6,73.8L33.1,29.9v121.3h121.3V29.9
			L154.4,29.9z"/>
	</g>
	<polygon class="st2" points="93.7,127.4 154.4,90.5 154.4,151.1 33.1,151.1 33.1,90.5 	"/>
</g>
<g class="st4">
	<path class="st2" d="M292.5,141.3H276V81.7L260.4,82v59.3h-16.6V81.7L228.2,82v59.3h-16.7V67.9h16.7v2.7c3.9-0.6,7.7-1.3,11.6-1.9
		c4.7-0.7,8.6-1.1,11.7-1.1c3.8,0,6.3,1.1,7.4,3.3c4.1-0.6,8.1-1.3,12.2-2c5.4-0.9,9.5-1.3,12.4-1.3c6.1,0,9.1,3,9.1,8.9v64.8H292.5
		z"/>
	<path class="st2" d="M352.9,132.2c0,6.1-3.1,9.1-9.2,9.1h-29.8c-6.3,0-9.4-3-9.4-9.1V76.9c0-6.1,3.1-9.1,9.4-9.1h29.8
		c6.2,0,9.2,3,9.2,9.1V132.2z M336.6,127.5V81.8h-15.8v45.7H336.6z"/>
	<path class="st2" d="M413.9,141.3h-16.7V81.7L381.6,82v59.3h-16.7V67.9h16.7v2.7c3.9-0.6,7.7-1.2,11.6-1.8
		c4.8-0.8,8.7-1.2,11.7-1.2c6.1,0,9.1,3,9.1,8.9v64.8H413.9z"/>
	<path class="st2" d="M506.8,141.3h-16.5V81.7L474.7,82v59.3h-16.6V81.7L442.5,82v59.3h-16.7V67.9h16.7v2.7
		c3.9-0.6,7.7-1.3,11.6-1.9c4.7-0.7,8.6-1.1,11.7-1.1c3.8,0,6.3,1.1,7.4,3.3c4.1-0.6,8.1-1.3,12.2-2c5.4-0.9,9.5-1.3,12.4-1.3
		c6.1,0,9.1,3,9.1,8.9L506.8,141.3L506.8,141.3z"/>
	<path class="st2" d="M566.1,141.3h-15.9v-2.5c-3.8,0.6-7.6,1.2-11.3,1.7c-4.9,0.7-8.7,1.1-11.3,1.1c-6.1,0-9.1-3-9.1-8.9v-26.5
		c0-6.1,3.1-9.1,9.4-9.1h22.5V80.2h-15.9v10.5h-15.1V77c0-6.1,3.1-9.1,9.4-9.1h28.1c6.2,0,9.2,3,9.2,9.1L566.1,141.3L566.1,141.3z
		 M550.3,128v-19.7h-15.9v20.3L550.3,128z"/>
	<path class="st2" d="M609.7,141.3h-18.5c-6.2,0-9.2-3-9.2-9.1V82h-7.9V67.8h7.9V47.9h16.6v19.9h10.7V82h-10.7v45.1h11.1
		L609.7,141.3L609.7,141.3z"/>
	<path class="st2" d="M634.9,141.3h-16.4v-17.6h16.4V141.3z"/>
	<path class="st2" d="M695.4,126.5c0,6-2.1,10.1-6.4,12.5c-3.1,1.7-7.8,2.5-14.1,2.5c-1.5,0-3.5,0-6.1-0.1s-4.5-0.1-5.7-0.1v26.8
		h-16.7V67.8h16.7v2.7c3.9-0.6,7.8-1.2,11.6-1.8c4.9-0.8,8.8-1.2,11.6-1.2c6.1,0,9.1,3,9.1,8.9L695.4,126.5L695.4,126.5z
		 M678.7,121.9V81.7L663.1,82v45.5h10.3C676.9,127.5,678.7,125.6,678.7,121.9z"/>
	<path class="st2" d="M724,141.3h-16.4V27.5H724V141.3z"/>
</g>
<g>
	<circle class="st5" cx="71.7" cy="71" r="68"/>
	<g>
		<polygon class="st3" points="24.8,117.9 24.8,26.2 71.7,83.3 118.7,26.2 118.7,117.9 		"/>
		<path d="M117.5,29.5v87.2H26V29.5L69.9,83l1.8,2.2l1.8-2.2L117.5,29.5 M119.9,22.9L71.8,81.4L23.6,22.9v96.3h96.3V22.9L119.9,22.9
			z"/>
	</g>
	<polygon points="71.7,100.2 119.9,71 119.9,119 23.6,119 23.6,71 	"/>
</g>
<g class="st6">
	<path class="st7" d="M233.2,114.2h-16.5V54.6l-15.6,0.3v59.3h-16.6V54.6l-15.6,0.3v59.3h-16.7V40.8h16.7v2.7
		c3.9-0.6,7.7-1.3,11.6-1.9c4.7-0.7,8.6-1.1,11.7-1.1c3.8,0,6.3,1.1,7.4,3.3c4.1-0.6,8.1-1.3,12.2-2c5.4-0.9,9.5-1.3,12.4-1.3
		c6.1,0,9.1,3,9.1,8.9L233.2,114.2C233.3,114.2,233.2,114.2,233.2,114.2z"/>
	<path class="st7" d="M293.6,105.1c0,6.1-3.1,9.1-9.2,9.1h-29.8c-6.3,0-9.4-3-9.4-9.1V49.8c0-6.1,3.1-9.1,9.4-9.1h29.8
		c6.2,0,9.2,3,9.2,9.1V105.1z M277.3,100.4V54.7h-15.8v45.7H277.3z"/>
	<path class="st7" d="M354.6,114.2h-16.7V54.6l-15.6,0.3v59.3h-16.7V40.8h16.7v2.7c3.9-0.6,7.7-1.2,11.6-1.8
		c4.8-0.8,8.7-1.2,11.7-1.2c6.1,0,9.1,3,9.1,8.9v64.8C354.7,114.2,354.6,114.2,354.6,114.2z"/>
	<path class="st7" d="M447.5,114.2H431V54.6l-15.6,0.3v59.3h-16.6V54.6l-15.6,0.3v59.3h-16.7V40.8h16.7v2.7
		c3.9-0.6,7.7-1.3,11.6-1.9c4.7-0.7,8.6-1.1,11.7-1.1c3.8,0,6.3,1.1,7.4,3.3c4.1-0.6,8.1-1.3,12.2-2c5.4-0.9,9.5-1.3,12.4-1.3
		c6.1,0,9.1,3,9.1,8.9L447.5,114.2L447.5,114.2z"/>
	<path class="st7" d="M506.8,114.2h-15.9v-2.5c-3.8,0.6-7.6,1.2-11.3,1.7c-4.9,0.7-8.7,1.1-11.3,1.1c-6.1,0-9.1-3-9.1-8.9V79.1
		c0-6.1,3.1-9.1,9.4-9.1h22.5V53.1h-15.9v10.5h-15.1V49.9c0-6.1,3.1-9.1,9.4-9.1h28.1c6.2,0,9.2,3,9.2,9.1L506.8,114.2L506.8,114.2z
		 M491,100.9V81.2h-15.9v20.3L491,100.9z"/>
	<path class="st7" d="M550.4,114.2h-18.5c-6.2,0-9.2-3-9.2-9.1V54.9h-7.9V40.7h7.9V20.8h16.6v19.9H550v14.2h-10.7V100h11.1
		L550.4,114.2L550.4,114.2z"/>
	<path class="st7" d="M575.6,114.2h-16.4V96.6h16.4V114.2z"/>
	<path class="st7" d="M636.1,99.4c0,6-2.1,10.1-6.4,12.5c-3.1,1.7-7.8,2.5-14.1,2.5c-1.5,0-3.5,0-6.1-0.1s-4.5-0.1-5.7-0.1V141
		h-16.7V40.7h16.7v2.7c3.9-0.6,7.8-1.2,11.6-1.8c4.9-0.8,8.8-1.2,11.6-1.2c6.1,0,9.1,3,9.1,8.9L636.1,99.4L636.1,99.4z M619.4,94.8
		V54.6l-15.6,0.3v45.5h10.3C617.6,100.4,619.4,98.5,619.4,94.8z"/>
	<path class="st7" d="M664.7,114.2h-16.4V0.4h16.4V114.2z"/>
</g>
</svg>
